<?xml version="1.0" encoding="UTF-8" standalone="no"?>
<svg
   xmlns:dc="http://purl.org/dc/elements/1.1/"
   xmlns:cc="http://creativecommons.org/ns#"
   xmlns:rdf="http://www.w3.org/1999/02/22-rdf-syntax-ns#"
   xmlns:svg="http://www.w3.org/2000/svg"
   xmlns="http://www.w3.org/2000/svg"
   viewBox="0 0 666.66669 666.66669"
   height="666.66669"
   width="666.66669"
   xml:space="preserve"
   id="svg2"
   version="1.1"><metadata
     id="metadata8"><rdf:RDF><cc:Work
         rdf:about=""><dc:format>image/svg+xml</dc:format><dc:type
           rdf:resource="http://purl.org/dc/dcmitype/StillImage" /></cc:Work></rdf:RDF></metadata><defs
     id="defs6" /><g
     transform="matrix(1.3333333,0,0,-1.3333333,0,666.66667)"
     id="g10"><g
       transform="scale(0.1)"
       id="g12"><path
         id="path14"
         style="fill:#ffffff;fill-opacity:1;fill-rule:nonzero;stroke:none"
         d="M 0,0 H 5000 V 5000 H 0 Z" /><path
         id="path16"
         style="fill:#f0eff4;fill-opacity:1;fill-rule:nonzero;stroke:none"
         d="m 2481.02,732.738 c -1095.5,0 -1983.579,83.453 -1983.579,186.391 0,102.941 888.079,186.381 1983.579,186.381 1095.5,0 1983.58,-83.44 1983.58,-186.381 0,-102.938 -888.08,-186.391 -1983.58,-186.391" /><path
         id="path18"
         style="fill:#6658b7;fill-opacity:1;fill-rule:nonzero;stroke:none"
         d="m 682.887,977.82 c -89.504,39.61 -170.032,99.34 -233.903,173.51 -89.218,103.62 -144.004,231.71 -197.421,357.58 83.093,-81.89 179.074,-150.67 283.32,-203.04 -67.278,148.3 -96.406,313.7 -83.836,476.05 72.777,-148.05 145.551,-296.09 218.324,-444.12 61.922,114.81 115.555,233.87 169.129,352.81 15.113,-240.77 -32.109,-485.19 -135.824,-703.02" /><path
         id="path20"
         style="fill:#76b0c1;fill-opacity:1;fill-rule:nonzero;stroke:none"
         d="m 593.477,952.391 1054.493,11.757 c -19.7,114.592 -33.32,230.672 -40.84,347.322 -2.91,45.05 30.4,69.65 74.39,59.53 44.91,-10.33 85.96,-16.05 109.99,-15.78 76.21,0.85 137.27,63.32 136.42,139.49 -0.85,76.21 -63.28,137.27 -139.49,136.42 -24.04,-0.28 -64.95,-6.9 -109.62,-18.22 -43.75,-11.1 -77.6,12.75 -75.7,57.85 4.92,116.77 33.37,347.39 33.37,347.39 -114.59,-19.7 -230.68,-33.32 -347.32,-40.85 -45.05,-2.9 -69.65,30.41 -59.54,74.39 10.34,44.92 16.05,85.97 15.79,110 -0.85,76.22 -63.33,137.28 -139.5,136.43 -76.21,-0.85 -137.264,-63.29 -136.412,-139.5 0.265,-24.04 6.894,-64.95 18.226,-109.62 11.094,-43.75 -12.757,-77.6 -57.855,-75.7 -116.781,4.92 -233.145,15.95 -348.152,33.09 l 11.75,-1053.999" /><path
         id="path22"
         style="fill:#553aaa;fill-opacity:1;fill-rule:nonzero;stroke:none"
         d="m 1798.96,932.02 c 0,0 -22.09,6.179 -49.31,23.269 0,0 -72.59,68.291 -136.99,27.731 0,0 -40.04,-29.688 -61.63,-30.661 0,0 52.16,0.45 86.68,-22.14 0,0 27.07,-18.078 67.86,-10.219 0,0 58.22,16.75 93.39,12.02" /><path
         id="path24"
         style="fill:#311f7c;fill-opacity:1;fill-rule:nonzero;stroke:none"
         d="m 1585.59,957.621 c 24.07,3.938 48.32,5.328 72.66,3.328 23.77,-1.949 46.65,-7.929 70.14,-11.57 14.64,-2.27 29.4,-3.957 43.94,-6.66 -6.79,3.293 -14.5,7.429 -22.68,12.57 0,0 -72.59,68.291 -136.99,27.731 0,0 -29.71,-22.02 -51.75,-28.75 8.25,0.929 16.48,2.011 24.68,3.351" /><path
         id="path26"
         style="fill:#ff9280;fill-opacity:1;fill-rule:nonzero;stroke:none"
         d="m 1659.03,849.988 c 16.12,12.852 -7.1,39.442 -16.81,47.742 -11.5,9.809 -24.72,18.45 -37.47,26.512 -4.33,2.738 -8.5,5.469 -12.59,8.246 15.52,-6.429 31.24,-12.277 46.94,-16.047 16.45,-3.953 46.54,1.411 44.24,24.411 -2.14,21.41 -42.1,23.398 -57.9,25.339 -17.07,2.079 -35.83,2.77 -53.37,-0.57 20.24,15.981 43.28,28.27 63.33,44.779 7.97,6.57 33.39,31.84 21.11,44.48 -4.78,4.91 -17.58,0.13 -22.99,-1.71 -11.5,-3.94 -21.65,-10.89 -30.53,-19.1 -15.7,-14.51 -28.67,-33.76 -40.11,-53.121 6.49,19.451 12.47,39.051 14.9,59.191 1.43,11.93 4.16,63.51 -17.19,61.84 -10.51,-0.82 -15.17,-15.94 -18.13,-23.71 -5.47,-14.37 -8.75,-29.46 -10.26,-44.74 -1.6,-16.14 -1.34,-32.24 0.05,-48.26 -7.06,7.039 -14.33,13.859 -22.06,20.12 -11.85,9.59 -39.98,34.86 -56.35,22.92 -18.35,-13.39 8.87,-43.001 19.35,-52.08 13.23,-11.492 28.74,-18.769 45.11,-23.8 -17.13,-1.821 -34.03,-5.239 -49.75,-12.192 -11.89,-5.258 -22.92,-12.179 -32.21,-21.328 -6.27,-6.18 -17.13,-16.98 -15.02,-26.98 4.83,-22.879 46.47,-1.899 57.05,2.539 13.4,5.601 26.64,12.203 39.22,19.84 -7.24,-12.75 -13.78,-25.848 -20.09,-38.379 -7.55,-15.008 -31.15,-51.051 -4.06,-61.09 8.92,-3.301 14.83,1.531 20.06,8.34 10.15,13.211 18.24,28.84 25.15,43.941 4.06,8.871 7.89,18.27 11.3,27.899 -0.48,-11.161 -0.37,-22.29 0.68,-33.231 1.24,-12.957 8.88,-52.801 29.28,-48.527 19,3.98 17.85,37.027 15.34,50.328 -2.46,13.101 -6.67,25.769 -11.43,38.289 5.11,-6.84 10.62,-13.379 16.66,-19.527 9.18,-9.36 43.07,-44.723 58.55,-32.364" /><path
         id="path28"
         style="fill:#261a12;fill-opacity:1;fill-rule:nonzero;stroke:none"
         d="m 1565.27,925.879 c -8.95,-5.66 -20.8,-2.988 -26.46,5.961 -5.66,8.949 -2.99,20.789 5.96,26.461 8.95,5.66 20.8,2.98 26.46,-5.961 5.65,-8.961 2.99,-20.801 -5.96,-26.461" /><path
         id="path30"
         style="fill:#553aaa;fill-opacity:1;fill-rule:nonzero;stroke:none"
         d="m 287.555,1075.52 c 0,0 19.593,-11.93 41.16,-35.75 0,0 51.387,-85.411 124.355,-63.809 0,0 46.594,17.738 67.637,12.82 0,0 -50.336,13.699 -77.449,44.789 0,0 -21.153,24.74 -62.551,28.21 0,0 -60.586,-0.35 -93.152,13.74" /><path
         id="path32"
         style="fill:#311f7c;fill-opacity:1;fill-rule:nonzero;stroke:none"
         d="m 486.012,993.07 c -24.239,2.75 -47.953,7.97 -70.84,16.48 -22.359,8.32 -42.762,20.27 -64.395,30.14 -13.472,6.14 -27.222,11.77 -40.484,18.32 5.645,-5.01 11.941,-11.08 18.422,-18.24 0,0 51.387,-85.411 124.355,-63.809 0,0 34.571,13.148 57.606,13.648 -8.192,1.34 -16.406,2.532 -24.664,3.461" /><path
         id="path34"
         style="fill:#ff9280;fill-opacity:1;fill-rule:nonzero;stroke:none"
         d="m 452.051,1128.06 c -18.988,-8.01 -3.848,-39.89 3.258,-50.51 8.406,-12.56 18.793,-24.45 28.886,-35.67 3.422,-3.81 6.696,-7.57 9.887,-11.35 -13.203,10.39 -26.754,20.29 -40.844,28.17 -14.765,8.26 -45.187,11.25 -49.199,-11.53 -3.73,-21.19 34.188,-33.92 48.871,-40.07 15.875,-6.63 33.735,-12.37 51.531,-13.901 -23.812,-9.898 -49.312,-15.5 -73.089,-25.961 -9.457,-4.156 -40.77,-21.597 -32.372,-37.097 3.266,-6.012 16.887,-4.891 22.59,-4.582 12.145,0.679 23.797,4.621 34.567,10.121 19.043,9.718 36.738,24.742 53,40.261 C 497.621,958.988 486.555,941.73 478.762,923 c -4.614,-11.09 -21.207,-60 -0.203,-64.18 10.336,-2.058 18.918,11.239 23.875,17.922 9.16,12.348 16.398,25.977 21.996,40.289 5.914,15.09 10.019,30.66 13.019,46.457 4.891,-8.679 10.039,-17.218 15.793,-25.34 8.805,-12.429 29.039,-44.386 48.031,-37.316 21.286,7.918 3.102,43.789 -4.515,55.379 -9.629,14.621 -22.594,25.848 -36.988,35.121 16.984,-2.891 34.179,-4.184 51.199,-1.75 12.871,1.848 25.363,5.52 36.785,11.808 7.707,4.25 21.09,11.71 21.762,21.91 1.554,23.34 -44.223,14.41 -55.606,13 -14.418,-1.76 -28.949,-4.52 -43.129,-8.46 10.426,10.3 20.27,21.14 29.739,31.49 11.328,12.4 43.804,40.7 20.449,57.71 -7.692,5.59 -14.692,2.54 -21.559,-2.59 -13.351,-9.97 -25.379,-22.82 -36.125,-35.49 -6.305,-7.44 -12.531,-15.45 -18.422,-23.8 3.481,10.62 6.383,21.36 8.336,32.17 2.321,12.82 5.754,53.23 -15.031,54.65 -19.375,1.32 -27.215,-30.81 -28.406,-44.29 -1.176,-13.28 -0.559,-26.61 0.636,-39.95 -3.062,7.95 -6.597,15.75 -10.75,23.31 -6.304,11.49 -29.343,54.71 -47.597,47.01" /><path
         id="path36"
         style="fill:#261a12;fill-opacity:1;fill-rule:nonzero;stroke:none"
         d="m 521.754,1029.6 c 10.148,3.03 20.828,-2.75 23.851,-12.9 3.028,-10.14 -2.75,-20.829 -12.902,-23.848 -10.148,-3.02 -20.828,2.75 -23.851,12.908 -3.024,10.14 2.753,20.83 12.902,23.84" /><path
         id="path38"
         style="fill:#b644bc;fill-opacity:1;fill-rule:nonzero;stroke:none"
         d="m 1917.39,947.301 c -18.44,114.809 -30.75,231.029 -36.98,347.749 -2.4,45.08 31.18,69.31 75.05,58.71 44.8,-10.84 85.78,-17.01 109.82,-17.01 76.21,0 137.98,61.75 137.98,137.97 0,76.16 -61.77,137.95 -137.98,137.95 -24.04,0 -65.02,-6.17 -109.82,-16.99 -43.87,-10.62 -77.45,13.6 -75.05,58.68 6.23,116.72 18.48,232.83 36.9,347.64 114.83,18.42 230.99,30.63 347.7,36.85 45.08,2.41 69.31,-31.17 58.71,-75.05 -10.84,-44.79 -17.01,-85.76 -17.01,-109.81 0,-76.2 61.75,-137.97 137.97,-137.97 76.16,0 137.93,61.77 137.93,137.97 0,24.05 -6.15,65.02 -16.98,109.81 -10.62,43.88 13.61,77.46 58.69,75.05 116.73,-6.22 232.96,-18.53 347.76,-36.97 18.42,-114.8 30.76,-231.04 36.98,-347.76 2.39,-45.07 -31.19,-69.3 -75.05,-58.7 -44.8,10.83 -85.78,17.01 -109.84,17.01 -76.2,0 -137.95,-61.74 -137.95,-137.96 0,-76.17 61.75,-137.96 137.95,-137.96 24.06,0 65.04,6.17 109.84,16.99 43.86,10.63 77.44,-13.6 75.05,-58.68 -6.22,-116.73 -18.56,-232.96 -36.98,-347.761 l -1054.69,0.242" /><path
         id="path40"
         style="fill:#553aaa;fill-opacity:1;fill-rule:nonzero;stroke:none"
         d="m 3134.99,930.551 c 0,0 -22.1,6.191 -49.31,23.269 0,0 -72.6,68.29 -136.99,27.739 0,0 -40.05,-29.688 -61.63,-30.668 0,0 52.15,0.461 86.68,-22.129 0,0 27.06,-18.071 67.86,-10.211 0,0 58.22,16.75 93.39,12" /><path
         id="path42"
         style="fill:#311f7c;fill-opacity:1;fill-rule:nonzero;stroke:none"
         d="m 2921.62,956.172 c 24.07,3.918 48.32,5.316 72.65,3.328 23.77,-1.961 46.65,-7.93 70.15,-11.578 14.63,-2.262 29.39,-3.953 43.93,-6.672 -6.79,3.301 -14.5,7.441 -22.67,12.57 0,0 -72.6,68.29 -136.99,27.739 0,0 -29.72,-22.008 -51.75,-28.739 8.24,0.93 16.47,2.012 24.68,3.352" /><path
         id="path44"
         style="fill:#ff9280;fill-opacity:1;fill-rule:nonzero;stroke:none"
         d="m 2995.06,848.52 c 16.11,12.851 -7.11,39.449 -16.82,47.742 -11.5,9.828 -24.71,18.449 -37.46,26.519 -4.33,2.731 -8.51,5.481 -12.6,8.239 15.52,-6.43 31.25,-12.27 46.95,-16.04 16.45,-3.949 46.54,1.411 44.23,24.418 -2.14,21.411 -42.1,23.403 -57.89,25.321 -17.08,2.09 -35.83,2.781 -53.38,-0.559 20.24,15.969 43.28,28.27 63.33,44.78 7.98,6.56 33.4,31.84 21.11,44.48 -4.77,4.91 -17.58,0.14 -22.98,-1.72 -11.51,-3.93 -21.65,-10.88 -30.54,-19.09 -15.69,-14.52 -28.66,-33.77 -40.11,-53.11 6.5,19.441 12.47,39.04 14.9,59.19 1.44,11.92 4.16,63.5 -17.19,61.83 -10.51,-0.82 -15.16,-15.94 -18.13,-23.71 -5.47,-14.37 -8.75,-29.46 -10.26,-44.74 -1.6,-16.14 -1.34,-32.238 0.05,-48.261 -7.05,7.031 -14.33,13.851 -22.06,20.111 -11.84,9.59 -39.98,34.87 -56.35,22.92 -18.34,-13.39 8.88,-42.988 19.35,-52.078 13.24,-11.473 28.75,-18.762 45.12,-23.801 -17.14,-1.801 -34.03,-5.223 -49.75,-12.191 -11.9,-5.25 -22.93,-12.161 -32.22,-21.321 -6.27,-6.179 -17.13,-16.98 -15.02,-26.98 4.83,-22.887 46.47,-1.887 57.05,2.531 13.41,5.621 26.65,12.199 39.23,19.852 -7.25,-12.75 -13.79,-25.84 -20.1,-38.383 -7.55,-15 -31.14,-51.047 -4.05,-61.09 8.91,-3.309 14.82,1.543 20.05,8.332 10.15,13.219 18.25,28.84 25.16,43.949 4.06,8.879 7.88,18.262 11.29,27.899 -0.48,-11.161 -0.36,-22.289 0.69,-33.219 1.24,-12.969 8.87,-52.809 29.27,-48.539 19.01,3.98 17.85,37.031 15.34,50.328 -2.46,13.109 -6.67,25.769 -11.43,38.293 5.11,-6.832 10.62,-13.383 16.66,-19.543 9.19,-9.348 43.08,-44.699 58.56,-32.359" /><path
         id="path46"
         style="fill:#261a12;fill-opacity:1;fill-rule:nonzero;stroke:none"
         d="m 2901.29,924.422 c -8.95,-5.672 -20.8,-2.992 -26.45,5.957 -5.67,8.953 -3,20.801 5.96,26.453 8.94,5.668 20.79,3 26.45,-5.961 5.66,-8.941 2.99,-20.789 -5.96,-26.449" /><path
         id="path48"
         style="fill:#76b0c1;fill-opacity:1;fill-rule:nonzero;stroke:none"
         d="m 1896.18,3292.25 c 18.44,-114.8 30.45,-231.08 36.67,-347.8 2.41,-45.08 -31.17,-69.3 -75.05,-58.7 -44.79,10.84 -85.76,17 -109.82,17 -76.2,0 -137.98,-61.75 -137.98,-137.96 0,-76.17 61.78,-137.96 137.98,-137.96 24.06,0 65.03,6.17 109.82,17 43.88,10.61 77.46,-13.61 75.05,-58.69 -6.22,-116.73 -18.41,-232.81 -36.85,-347.62 114.81,18.44 231.17,30.9 347.89,37.12 45.08,2.42 69.31,-31.17 58.71,-75.05 -10.85,-44.79 -17.01,-85.77 -17.01,-109.81 0,-76.21 61.75,-137.98 137.97,-137.98 76.16,0 137.95,61.77 137.95,137.98 0,24.04 -6.17,65.02 -16.99,109.81 -10.63,43.88 13.6,77.47 58.68,75.05 116.73,-6.22 233.12,-18.49 347.93,-36.93 -18.42,114.8 -30.58,231.08 -36.8,347.79 -2.4,45.09 31.18,69.31 75.05,58.71 44.79,-10.84 85.77,-17 109.81,-17 76.22,0 137.98,61.75 137.98,137.97 0,76.16 -61.76,137.95 -137.98,137.95 -24.04,0 -65.02,-6.17 -109.81,-17 -43.87,-10.62 -77.45,13.61 -75.05,58.69 6.22,116.73 18.56,232.82 36.97,347.62 -114.8,-18.43 -940.31,-18.62 -1055.12,-0.19" /><path
         id="path50"
         style="fill:#4682af;fill-opacity:1;fill-rule:nonzero;stroke:none"
         d="M 690.188,777.609 H 634.629 V 3757.84 h 55.559 V 777.609" /><path
         id="path52"
         style="fill:#4682af;fill-opacity:1;fill-rule:nonzero;stroke:none"
         d="m 1085.81,777.609 h -55.56 V 3757.84 h 55.56 V 777.609" /><path
         id="path54"
         style="fill:#4682af;fill-opacity:1;fill-rule:nonzero;stroke:none"
         d="M 1061.51,3589.24 H 651.324 v 51.13 h 410.186 v -51.13" /><path
         id="path56"
         style="fill:#4682af;fill-opacity:1;fill-rule:nonzero;stroke:none"
         d="M 1061.51,3301.37 H 651.324 v 51.13 h 410.186 v -51.13" /><path
         id="path58"
         style="fill:#4682af;fill-opacity:1;fill-rule:nonzero;stroke:none"
         d="M 1053.13,3013.5 H 642.945 v 51.13 h 410.185 v -51.13" /><path
         id="path60"
         style="fill:#4682af;fill-opacity:1;fill-rule:nonzero;stroke:none"
         d="M 1057.44,2725.63 H 647.25 v 51.14 h 410.19 v -51.14" /><path
         id="path62"
         style="fill:#4682af;fill-opacity:1;fill-rule:nonzero;stroke:none"
         d="M 1053.13,2437.77 H 642.945 v 51.13 h 410.185 v -51.13" /><path
         id="path64"
         style="fill:#4682af;fill-opacity:1;fill-rule:nonzero;stroke:none"
         d="M 1053.13,2149.9 H 642.945 v 51.13 h 410.185 v -51.13" /><path
         id="path66"
         style="fill:#4682af;fill-opacity:1;fill-rule:nonzero;stroke:none"
         d="M 1061.51,1862.03 H 651.324 v 51.13 h 410.186 v -51.13" /><path
         id="path68"
         style="fill:#4682af;fill-opacity:1;fill-rule:nonzero;stroke:none"
         d="M 1061.51,1574.17 H 651.324 v 51.13 h 410.186 v -51.13" /><path
         id="path70"
         style="fill:#4682af;fill-opacity:1;fill-rule:nonzero;stroke:none"
         d="M 1061.51,1286.29 H 651.324 v 51.14 h 410.186 v -51.14" /><path
         id="path72"
         style="fill:#4682af;fill-opacity:1;fill-rule:nonzero;stroke:none"
         d="M 1061.51,998.422 H 651.324 v 51.138 h 410.186 v -51.138" /><path
         id="path74"
         style="fill:#311f7c;fill-opacity:1;fill-rule:nonzero;stroke:none"
         d="m 4739.39,1810.49 c 0,0 -59.45,3.09 -138.08,30.87 0,0 -222.66,131.6 -362.62,-7.7 0,0 -84.51,-97.95 -138.62,-112.71 0,0 131.82,30.82 232.08,-6.73 0,0 78.8,-30.38 177.61,12.75 0,0 137.89,75.53 229.63,83.52" /><path
         id="path76"
         style="fill:#553aaa;fill-opacity:1;fill-rule:nonzero;stroke:none"
         d="m 4184.58,1753.96 c 58.73,23.63 119.32,40.97 182.07,49.76 61.31,8.58 122.62,6.45 184.19,10.61 38.33,2.58 76.67,6.7 115.02,8.11 -19.06,4.47 -40.92,10.57 -64.55,18.92 0,0 -222.66,131.6 -362.62,-7.7 0,0 -62.71,-72.66 -114.68,-102.23 20.35,7.05 40.57,14.47 60.57,22.53" /><path
         id="path78"
         style="fill:#311f7c;fill-opacity:1;fill-rule:nonzero;stroke:none"
         d="m 4726.42,2023.88 c 0,0 -44.7,-17.79 -113.97,-24.1 0,0 -218.98,20.62 -261.16,-127.82 0,0 -19.53,-99.67 -52.64,-128.63 0,0 82.89,66.83 172.15,73.33 0,0 70.52,4.48 124.06,69.13 0,0 68.09,101.36 131.56,138.09" /><path
         id="path80"
         style="fill:#553aaa;fill-opacity:1;fill-rule:nonzero;stroke:none"
         d="m 4346.1,1795.8 c 32.65,36.97 69.39,70 111.39,97.53 41.02,26.9 86.66,46.02 129.77,69.79 26.84,14.8 53.04,30.71 80.4,44.66 -15.83,-3.18 -34.4,-6.11 -55.21,-8 0,0 -218.98,20.62 -261.16,-127.82 0,0 -14.5,-73.94 -39.68,-112.95 11.8,11.98 23.36,24.2 34.49,36.79" /><path
         id="path82"
         style="fill:#6658b7;fill-opacity:1;fill-rule:nonzero;stroke:none"
         d="m 4436.28,957.52 c -36.03,59.52 -57.32,124.02 -61.83,187.34 -6.31,88.47 19.61,172.08 45.32,254.04 12.62,-75.75 39.11,-151.52 78.21,-223.67 27.66,98.57 86.38,187.24 169,255.17 -24.2,-101.02 -48.41,-202.04 -72.61,-303.05 90.63,23.43 178.18,52.65 265.65,81.82 -102.05,-116.39 -243.62,-205.53 -407.2,-256.381" /><path
         id="path84"
         style="fill:#76b0c1;fill-opacity:1;fill-rule:nonzero;stroke:none"
         d="m 4393.5,2011.55 c -114.81,-18.42 -231.05,-30.75 -347.76,-36.97 -45.08,-2.4 -69.31,31.19 -58.7,75.04 10.84,44.8 17,85.79 17,109.83 0,76.21 -61.75,137.97 -137.96,137.97 -76.18,0 -137.96,-61.76 -137.96,-137.97 0,-24.04 6.16,-65.03 17,-109.83 10.61,-43.85 -13.62,-77.44 -58.7,-75.04 -116.72,6.22 -232.96,18.55 -347.76,36.97 0,0 31.02,-230.29 37.24,-346.99 2.42,-45.08 -31.17,-69.31 -75.05,-58.71 -44.79,10.83 -85.77,17.01 -109.81,17.01 -76.22,0 -137.96,-61.75 -137.96,-137.96 0,-76.17 61.74,-137.97 137.96,-137.97 24.04,0 65.02,6.17 109.81,17.01 43.88,10.61 77.47,-13.62 75.05,-58.7 -6.22,-116.73 -18.54,-232.95 -36.97,-347.752 H 4393.5 V 2011.55" /><path
         id="path86"
         style="fill:#000000;fill-opacity:1;fill-rule:nonzero;stroke:none"
         d="m 4151.65,1593.82 c -1.85,4.31 -14.95,-1.47 -17.47,-4.38 -0.1,5.31 -7.47,9.62 -11.88,4.38 -5.91,-7.02 -28.2,-26.64 -41.2,-36.7 -9.08,-7.02 -16.36,-16.94 -0.3,-22.61 9.85,-3.49 52.75,9.9 66.51,19.31 13.02,8.93 14.13,17.08 4.34,40" /><path
         id="path88"
         style="fill:#e0ba90;fill-opacity:1;fill-rule:nonzero;stroke:none"
         d="m 4149.96,1658.32 c -1.54,11.96 -0.27,2.16 -3.09,13.88 l -0.01,0.03 -0.4,1.7 c -1.77,7.2 -12.63,4.55 -12.95,-2.15 -2.59,0.72 -5.65,-0.1 -7.45,-2.24 -2.16,-1.14 -3.85,-3.26 -3.9,-6.26 v -0.19 c -3.19,-0.39 -6.31,-2.95 -6.44,-7.15 -0.12,-3.63 -0.18,-7.26 -0.22,-10.9 -0.52,-1.02 -0.83,-2.24 -0.75,-3.7 0.36,-6.99 2.36,-47.09 12.5,-53.23 10.08,-6.11 19.12,-3.19 23.12,4.33 5.22,9.85 0.93,55.33 -0.41,65.88" /><path
         id="path90"
         style="fill:#000000;fill-opacity:1;fill-rule:nonzero;stroke:none"
         d="m 4027.94,1600.89 c -1.83,4.31 -14.94,-1.47 -17.46,-4.38 -0.1,5.31 -7.46,9.62 -11.87,4.38 -5.91,-7.02 -28.2,-26.64 -41.2,-36.7 -9.08,-7.02 -16.36,-16.94 -0.31,-22.61 9.86,-3.5 52.76,9.9 66.52,19.31 13.02,8.93 14.13,17.08 4.32,40" /><path
         id="path92"
         style="fill:#e0ba90;fill-opacity:1;fill-rule:nonzero;stroke:none"
         d="m 4026.26,1665.39 c -1.53,11.96 -0.26,2.16 -3.09,13.88 v 0.03 h -0.01 l -0.39,1.7 c -1.77,7.2 -12.63,4.55 -12.95,-2.15 -2.59,0.73 -5.66,-0.1 -7.45,-2.24 -2.16,-1.14 -3.85,-3.26 -3.9,-6.26 v -0.19 c -3.2,-0.39 -6.32,-2.95 -6.45,-7.15 -0.12,-3.63 -0.17,-7.26 -0.21,-10.9 -0.53,-1.02 -0.83,-2.24 -0.76,-3.7 0.37,-6.99 2.37,-47.09 12.51,-53.23 10.07,-6.11 19.12,-3.19 23.11,4.33 5.22,9.85 0.94,55.33 -0.41,65.88" /><path
         id="path94"
         style="fill:#0a0a35;fill-opacity:1;fill-rule:nonzero;stroke:none"
         d="m 4205.2,2099.39 -209.36,-55.87 c 0,0 -46.61,-19.64 -44.49,-66.95 l 33.83,-370.49 49.5,15.55 5.01,313.7 c 0,0 174.08,-11.26 211.12,85.11 l -45.61,78.95" /><path
         id="path96"
         style="fill:#0d0d42;fill-opacity:1;fill-rule:nonzero;stroke:none"
         d="m 4254.36,2090.96 -176.44,-67.08 c -49.18,-16.42 -53.13,-53.74 -44.71,-104.91 1.99,-12.1 76.9,-325.23 76.9,-325.23 l 52.17,19.6 -22.82,297.57 c 0,0 210.76,20.14 200.54,171.28 l -85.64,8.77" /><path
         id="path98"
         style="fill:#0d0d42;fill-opacity:1;fill-rule:nonzero;stroke:none"
         d="m 4160.76,2046.46 7.6,129.14 139.52,-24.7 c 0,0 84.4,-158.61 -59.23,-191.73 -76.55,-17.63 -87.89,87.29 -87.89,87.29" /><path
         id="path100"
         style="fill:#e5ba8e;fill-opacity:1;fill-rule:nonzero;stroke:none"
         d="m 4137.8,2397.24 c -16.61,-10.41 -96.03,-56.5 -106.83,-64.03 -11.54,-8.05 -22.53,-16.91 -32.92,-26.4 -8.27,-7.56 -16.78,-16.63 -14.41,-28.82 2.19,-11.3 9.13,-12.89 20.16,-13.29 13.19,-0.48 24.43,7.74 34.95,14.57 20.42,13.29 46.57,28.98 69.65,43.38 -2.2,18.33 32.73,56.41 29.4,74.59" /><path
         id="path102"
         style="fill:#e5ba8e;fill-opacity:1;fill-rule:nonzero;stroke:none"
         d="m 4222.18,2476.55 c 0.22,5.14 3.28,8.27 6.98,9.41 4.49,3.47 12.01,2.6 15.3,-2.52 1.05,-0.46 2.02,-1.09 2.88,-1.9 3.98,0.54 8.05,-1.01 9.76,-5.36 4.7,1.43 9.99,-0.06 11.76,-5.64 2.67,-1.9 4.54,-4.98 4.54,-8.38 -0.01,-11.38 -0.01,-22.77 -0.02,-34.16 0.23,-8.99 0.14,-18.01 -0.02,-27.05 -0.02,-0.95 -0.14,-1.83 -0.36,-2.64 0.62,-3.62 -0.7,-7.43 -4.98,-9.68 -9.37,-4.95 -19.67,-7.55 -30.29,-6.24 -11.5,1.41 -15.96,8.82 -16.34,19.83 -0.86,24.74 -0.24,49.61 0.79,74.33" /><path
         id="path104"
         style="fill:#e5ba8e;fill-opacity:1;fill-rule:nonzero;stroke:none"
         d="m 4293.84,2546.03 c -6.84,34.64 -47.76,62.08 -79.94,30.58 -22.36,-21.9 -20.05,-65.6 -16.82,-84.34 2.83,-16.38 10.88,-32.24 24.68,-41.57 13.88,-9.4 33.49,-10.95 47.43,-0.91 27.4,19.75 30.75,65.4 24.65,96.24" /><path
         id="path106"
         style="fill:#eeddcd;fill-opacity:1;fill-rule:nonzero;stroke:none"
         d="m 4136.98,2403.74 c 23.15,21.57 160.06,14.29 176.81,9.51 36.37,-10.4 59.55,-89.29 63.25,-126.57 0.23,-2.36 -25.65,-12.47 -40.2,-16.16 -4.18,-1.06 -7.23,-4.62 -7.56,-8.91 -2.85,-36.78 18.6,-176.14 10.72,-179.42 -7.81,-3.25 -197.05,-4.47 -201.98,8.77 0,0 0.5,164.61 -1.74,184.04 -1.71,-1.72 -6.41,122.1 0.7,128.74" /><path
         id="path108"
         style="fill:#e0ba90;fill-opacity:1;fill-rule:nonzero;stroke:none"
         d="m 4023.17,2291.27 c -0.45,1.15 -1.13,2.27 -2.11,3.36 -7.74,8.7 -17.46,11.4 -27.87,11.82 -45.52,-7.21 -92.03,-3.22 -137.26,-13.02 l -0.16,-0.02 c -1.49,-2.66 -2.92,-5.38 -4.28,-8.16 7.17,-0.56 65.1,-15.94 88.86,-19.69 l 1.7,-0.27 c 3.37,-0.8 6.77,-1.55 10.18,-2.28 23.07,-4.84 51.53,-7 70,11.43 5.52,5.51 4.75,12.63 0.94,16.83" /><path
         id="path110"
         style="fill:#eeddcd;fill-opacity:1;fill-rule:nonzero;stroke:none"
         d="m 4243.65,2415.43 c 40.2,-0.04 70.03,-6.67 98.37,-29.16 6.63,-5.26 12.83,-11.67 18.45,-18.82 -12.12,-2.97 -24.61,-4.88 -36.45,-7 -24.26,-4.32 -48.68,-6.72 -73.33,-5.89 -23.62,0.79 -46.2,4.49 -68.55,12.03 -9.77,3.29 -19.64,7.57 -28.59,13.08 26.59,27.63 50.77,35.81 90.1,35.76" /><path
         id="path112"
         style="fill:#9c5e45;fill-opacity:1;fill-rule:nonzero;stroke:none"
         d="m 4279.26,2462.13 c 11.57,12.5 23.26,25.2 31.2,40.27 7.94,15.07 11.83,33.04 6.83,49.32 -5.52,17.96 -21.1,31.41 -38.33,38.89 -17.24,7.48 -36.18,9.83 -54.82,12.11 -5.86,0.72 -12.59,1.17 -16.86,-2.92 -7.65,-7.32 0.44,-20.42 9.92,-25.16 9.47,-4.73 21.4,-7.17 26.41,-16.52 3.91,-7.3 2.13,-16.74 6.32,-23.9 3.33,-5.68 9.76,-8.8 13.87,-13.95 12.64,-15.8 -1.64,-41.44 8.89,-58.72" /><path
         id="path114"
         style="fill:#9c5e45;fill-opacity:1;fill-rule:nonzero;stroke:none"
         d="m 4281.05,2460.26 c 27.67,25.5 58.6,64.92 37.4,103.96 -17.62,32.46 -65.19,47.4 -100.26,45.84 -33.34,-1.49 -18.31,-33.99 1.34,-44 15.41,-7.85 16.45,-12.7 21.45,-27.79 2.51,-7.56 5.71,-9.6 10.59,-15.99 15.66,-20.53 5.26,-41.92 15.01,-64.07 3.61,-8.23 15.82,-1.47 12.22,6.69 -10.38,23.55 3.46,43.78 -14.64,64.81 -14.1,16.37 -10.28,34.75 -31.44,45.71 -9.79,5.07 -13.45,1.01 -10.31,12.82 -0.93,8.03 2.28,10.27 9.65,6.7 4.74,-0.68 9.5,-1.36 14.25,-2.04 18.44,-3.27 37.79,-8.78 51.65,-22.14 35.86,-34.54 2.13,-77.69 -20.91,-107.3 -1.84,-2.36 1.93,-5.12 4,-3.2" /><path
         id="path116"
         style="fill:#eeddcd;fill-opacity:1;fill-rule:nonzero;stroke:none"
         d="m 4149.3,2313.49 -46.97,-20.36 -33.94,84.64 c 0,0 80.91,53 111.06,33.63 58.86,-37.82 -30.15,-97.91 -30.15,-97.91" /><path
         id="path118"
         style="fill:#e5ba8e;fill-opacity:1;fill-rule:nonzero;stroke:none"
         d="m 4333.22,2314.32 c -2.05,-30.04 -3.57,-72.69 -4.32,-102.76 -0.16,-6.28 -0.4,-26.67 -0.44,-32.95 -1.39,1.42 -43.49,65.5 -64.45,88.95 -2.3,1.46 -4.42,3.49 -6.19,6.2 l -2.09,1.66 -0.88,2.3 c -5.88,7.84 -13.2,14.44 -20.83,20.79 -5.02,-7.56 -9.85,-15.22 -14.47,-23.03 4.99,-4.01 10.29,-7.69 14.73,-12.3 l 0.3,-0.96 c 14.4,-30.18 62.48,-126.37 84.43,-136.64 10.73,-5.02 24.19,-3.99 33.48,2.36 l 2.23,1.71 c 1.93,1.62 3.6,3.51 4.96,5.66 2.9,3.24 5.23,7.12 6.66,11.14 7.21,20.27 10.04,42.03 12.3,63.32 2.43,22.94 4.58,45.91 6.86,68.86 1.15,11.61 4.08,27.13 -0.12,39.06 -17.41,-0.95 -34.8,-1.94 -52.16,-3.37" /><path
         id="path120"
         style="fill:#edba85;fill-opacity:1;fill-rule:nonzero;stroke:none"
         d="m 4250.79,2270.18 c 0.92,1.03 1.14,2.52 0.56,3.9 -2.62,6.18 -9.92,23.29 -11.12,25.48 -1.03,1.88 -2.94,14.01 -3.98,21.1 -0.43,2.87 -3.83,4.69 -6.19,3.18 -1.96,-1.24 -3.48,-3.24 -2.53,-6.39 2.11,-6.99 4.76,-18.41 -4.1,-21.58 -24.08,-8.59 -41.71,17.04 -49.55,12.25 l -0.1,-0.07 c -2.38,-1.5 -1.71,-5.22 1.04,-6.54 0.93,-0.44 2.01,-0.97 3.19,-1.58 l 1.54,-1.32 c 2.81,-3.68 8.78,-9.25 17.29,-12.77 l 1.41,-0.92 c 5.94,-5.87 12.57,-9.49 17.2,-11.06 4.03,-1.37 24.84,-4.5 31.44,-5.48 1.27,-0.18 2.49,0.24 3.29,1.13 l 0.61,0.67" /><path
         id="path122"
         style="fill:#eeddcd;fill-opacity:1;fill-rule:nonzero;stroke:none"
         d="m 4297.91,2415.35 c 0,0 69.37,7.26 110.3,-130.32 l -89.76,-10.3 c 0,0 -37.27,145.69 -20.54,140.62" /><path
         id="path124"
         style="fill:#edba85;fill-opacity:1;fill-rule:nonzero;stroke:none"
         d="m 3880.29,2292.18 c 0.18,1.38 -0.49,2.73 -1.74,3.53 -5.67,3.61 -21.37,13.58 -23.59,14.71 -1.92,0.97 -10.37,9.89 -15.24,15.13 -1.98,2.13 -5.81,1.7 -6.89,-0.87 -0.92,-2.14 -1.05,-4.65 1.52,-6.71 5.7,-4.56 14.36,-12.48 8.85,-20.09 -14.99,-20.73 -44.03,-9.59 -47.78,-17.97 l -0.04,-0.12 c -1.12,-2.58 1.54,-5.28 4.56,-4.79 1,0.15 2.2,0.33 3.52,0.49 l 2.01,-0.21 c 4.41,-1.45 12.47,-2.66 21.49,-0.73 l 1.68,0.03 c 8.23,-1.47 15.72,-0.7 20.45,0.63 4.09,1.15 23,10.35 29,13.29 1.15,0.57 1.92,1.59 2.08,2.78 l 0.12,0.9" /><path
         id="path126"
         style="fill:#e5ba8e;fill-opacity:1;fill-rule:nonzero;stroke:none"
         d="m 4254.25,2497.38 c 5.08,0.75 10.14,4.19 14.78,6.37 -2.78,2.22 -5.58,4.43 -8.37,6.65 -0.85,-2.54 -0.97,-5.25 -2.03,-7.74 -0.47,-1.09 -1.09,-2.18 -1.78,-3.13 -1.91,-2.61 -2.75,-0.87 1.46,-1.89 1.13,-0.68 2.26,-1.36 3.38,-2.03 0.94,-0.89 0.04,-1.79 1.03,-1.27 l 1.37,2.75 1.47,1.82 c 0.35,1.51 0.96,-1.25 -1.8,0.65 -0.93,0.96 -1.87,1.94 -2.8,2.91 l 0.03,-0.31 c 0.02,1.32 0.04,2.63 0.06,3.95 -0.45,-3.09 -2.34,-6.33 -5.83,-6.69 2.58,-2.65 5.16,-5.29 7.74,-7.94 -0.47,6.24 2.11,11.23 7.69,14.18 -3.54,1.03 -7.07,2.06 -10.62,3.1 1.63,-2.82 0.58,-4.43 -1.08,-6.87 -2.35,-3.45 -2.36,-9.02 1.94,-11.13 2.94,-1.43 6.63,-1.5 9.09,1 6.52,6.63 8.11,16.23 3.77,24.51 -2.03,3.89 -6.85,4.91 -10.61,3.1 -10.28,-4.94 -16.78,-16.32 -15.86,-27.7 0.31,-3.82 3.22,-8.41 7.74,-7.92 10.58,1.12 23.04,9.97 21.01,22.15 -0.91,5.41 -5.58,8.93 -11,8.75 -5.69,-0.19 -10.1,-4.03 -13.23,-8.46 -2.79,-3.96 -5.01,-9.3 -4.33,-14.21 0.76,-5.57 5.65,-10.13 11.51,-8.82 9.49,2.13 15.94,18.61 12.9,27.08 -1.52,4.25 -6.06,5.72 -9.64,2.8 -3.96,-3.24 -8.93,-6.22 -11.82,-10.5 -1.82,-2.72 1.08,-5.56 3.83,-5.16" /><path
         id="path128"
         style="fill:#6658b7;fill-opacity:1;fill-rule:nonzero;stroke:none"
         d="m 3942.86,746.66 c -57.44,-2.75 -112.71,7.18 -160.5,28.852 -66.77,30.269 -117.33,82.027 -166.76,133.008 60.02,-20.668 125.52,-31.27 193.36,-31.27 -60.74,58.93 -102.04,136.52 -118.86,223.33 63.87,-57.38 127.75,-114.76 191.62,-172.15 18.68,75.1 31.94,150.23 45.18,225.29 44.39,-120.01 53.41,-258.009 25.92,-396.919" /><path
         id="path130"
         style="fill:#553aaa;fill-opacity:1;fill-rule:nonzero;stroke:none"
         d="m 4195.65,707.281 c 0,0 -22.1,6.18 -49.31,23.258 0,0 -72.6,68.293 -136.99,27.75 0,0 -40.05,-29.687 -61.64,-30.68 0,0 52.17,0.461 86.69,-22.129 0,0 27.06,-18.07 67.85,-10.21 0,0 58.23,16.75 93.4,12.011" /><path
         id="path132"
         style="fill:#311f7c;fill-opacity:1;fill-rule:nonzero;stroke:none"
         d="m 3982.27,732.891 c 24.08,3.918 48.32,5.328 72.66,3.328 23.78,-1.957 46.65,-7.93 70.15,-11.578 14.63,-2.262 29.39,-3.95 43.93,-6.672 -6.79,3.293 -14.49,7.453 -22.67,12.57 0,0 -72.6,68.293 -136.99,27.75 0,0 -29.72,-22.027 -51.76,-28.75 8.25,0.922 16.49,2.012 24.68,3.352" /><path
         id="path134"
         style="fill:#ff9280;fill-opacity:1;fill-rule:nonzero;stroke:none"
         d="m 4055.72,625.238 c 16.11,12.852 -7.1,39.453 -16.82,47.742 -11.49,9.829 -24.72,18.45 -37.47,26.52 -4.33,2.742 -8.5,5.48 -12.59,8.238 15.52,-6.418 31.24,-12.269 46.95,-16.047 16.45,-3.941 46.54,1.418 44.23,24.43 -2.14,21.399 -42.1,23.399 -57.9,25.32 -17.07,2.09 -35.83,2.778 -53.37,-0.57 20.25,15.988 43.28,28.277 63.33,44.789 7.98,6.57 33.4,31.84 21.11,44.481 -4.77,4.91 -17.58,0.14 -22.98,-1.719 -11.51,-3.922 -21.66,-10.883 -30.54,-19.09 -15.7,-14.523 -28.66,-33.762 -40.1,-53.113 6.48,19.441 12.47,39.043 14.89,59.191 1.43,11.922 4.17,63.5 -17.19,61.832 -10.51,-0.82 -15.17,-15.953 -18.12,-23.711 -5.47,-14.371 -8.75,-29.449 -10.27,-44.742 -1.6,-16.137 -1.34,-32.23 0.05,-48.258 -7.05,7.028 -14.33,13.848 -22.06,20.117 -11.85,9.582 -39.98,34.864 -56.35,22.911 -18.34,-13.387 8.88,-42.989 19.35,-52.079 13.23,-11.48 28.75,-18.761 45.12,-23.8 -17.13,-1.809 -34.04,-5.219 -49.76,-12.18 -11.89,-5.262 -22.92,-12.168 -32.21,-21.328 -6.27,-6.18 -17.13,-16.981 -15.02,-26.981 4.83,-22.882 46.48,-1.89 57.05,2.528 13.4,5.621 26.65,12.203 39.23,19.851 -7.24,-12.75 -13.79,-25.84 -20.1,-38.379 -7.54,-15 -31.15,-51.05 -4.05,-61.089 8.92,-3.301 14.83,1.539 20.05,8.339 10.15,13.207 18.25,28.84 25.16,43.95 4.05,8.859 7.89,18.257 11.29,27.89 -0.47,-11.152 -0.36,-22.289 0.69,-33.222 1.24,-12.969 8.88,-52.809 29.27,-48.539 19.01,3.98 17.86,37.031 15.35,50.332 -2.47,13.109 -6.67,25.757 -11.44,38.277 5.11,-6.82 10.63,-13.379 16.66,-19.52 9.18,-9.359 43.08,-44.711 58.56,-32.371" /><path
         id="path136"
         style="fill:#261a12;fill-opacity:1;fill-rule:nonzero;stroke:none"
         d="m 3961.95,701.141 c -8.95,-5.661 -20.79,-2.993 -26.46,5.961 -5.65,8.949 -2.99,20.796 5.96,26.457 8.96,5.652 20.8,2.992 26.47,-5.957 5.65,-8.954 2.98,-20.801 -5.97,-26.461" /><path
         id="path138"
         style="fill:#553aaa;fill-opacity:1;fill-rule:nonzero;stroke:none"
         d="m 4653.56,963.031 c 0,0 -22.1,6.18 -49.31,23.258 0,0 -72.6,68.301 -136.99,27.751 0,0 -40.05,-29.688 -61.64,-30.669 0,0 52.17,0.449 86.69,-22.133 0,0 27.06,-18.078 67.85,-10.218 0,0 58.23,16.75 93.4,12.011" /><path
         id="path140"
         style="fill:#311f7c;fill-opacity:1;fill-rule:nonzero;stroke:none"
         d="m 4440.18,988.641 c 24.08,3.918 48.32,5.328 72.66,3.328 23.78,-1.957 46.65,-7.93 70.15,-11.571 14.63,-2.269 29.4,-3.957 43.93,-6.668 -6.79,3.301 -14.49,7.442 -22.67,12.559 0,0 -72.6,68.301 -136.99,27.751 0,0 -29.72,-22.02 -51.76,-28.751 8.25,0.93 16.49,2.012 24.68,3.352" /><path
         id="path142"
         style="fill:#ff9280;fill-opacity:1;fill-rule:nonzero;stroke:none"
         d="m 4513.63,881 c 16.11,12.852 -7.1,39.441 -16.82,47.75 -11.49,9.809 -24.72,18.441 -37.47,26.5 -4.33,2.742 -8.5,5.48 -12.59,8.238 15.52,-6.406 31.24,-12.258 46.95,-16.027 16.45,-3.961 46.54,1.398 44.23,24.41 -2.14,21.41 -42.1,23.399 -57.9,25.328 -17.07,2.082 -35.82,2.781 -53.36,-0.57 20.24,15.981 43.27,28.281 63.32,44.781 7.98,6.57 33.4,31.84 21.11,44.48 -4.78,4.92 -17.58,0.14 -22.99,-1.72 -11.5,-3.92 -21.65,-10.87 -30.53,-19.09 -15.7,-14.52 -28.66,-33.76 -40.1,-53.11 6.49,19.44 12.47,39.04 14.89,59.19 1.43,11.92 4.17,63.5 -17.19,61.83 -10.51,-0.82 -15.17,-15.94 -18.12,-23.71 -5.47,-14.37 -8.75,-29.45 -10.27,-44.73 -1.6,-16.15 -1.34,-32.24 0.05,-48.27 -7.05,7.05 -14.33,13.85 -22.06,20.12 -11.85,9.58 -39.98,34.86 -56.35,22.91 -18.34,-13.39 8.88,-42.99 19.35,-52.08 13.23,-11.468 28.75,-18.761 45.12,-23.789 -17.13,-1.812 -34.04,-5.23 -49.76,-12.191 -11.89,-5.262 -22.92,-12.172 -32.21,-21.32 -6.27,-6.18 -17.13,-16.989 -15.02,-26.989 4.83,-22.882 46.48,-1.89 57.05,2.539 13.4,5.61 26.65,12.192 39.23,19.84 -7.24,-12.75 -13.79,-25.84 -20.1,-38.371 -7.54,-15.008 -31.15,-51.058 -4.05,-61.097 8.92,-3.301 14.83,1.539 20.05,8.339 10.15,13.207 18.25,28.84 25.16,43.95 4.05,8.871 7.89,18.257 11.29,27.898 -0.47,-11.16 -0.36,-22.289 0.69,-33.23 1.24,-12.969 8.88,-52.809 29.28,-48.539 19,3.98 17.85,37.031 15.34,50.332 -2.47,13.109 -6.67,25.769 -11.44,38.289 5.11,-6.832 10.63,-13.371 16.66,-19.532 9.18,-9.359 43.08,-44.711 58.56,-32.359" /><path
         id="path144"
         style="fill:#261a12;fill-opacity:1;fill-rule:nonzero;stroke:none"
         d="m 4419.86,956.891 c -8.95,-5.653 -20.79,-2.993 -26.46,5.968 -5.65,8.942 -2.98,20.789 5.96,26.45 8.96,5.66 20.8,2.992 26.47,-5.957 5.65,-8.954 2.98,-20.801 -5.97,-26.461" /><path
         id="path146"
         style="fill:#311f7c;fill-opacity:1;fill-rule:nonzero;stroke:none"
         d="m 4408.16,4299.41 c 0,0 -30.56,-51.1 -91.91,-107.57 0,0 -220.52,-135.16 -162.92,-324.06 0,0 47.01,-120.51 34.72,-175.24 0,0 34.45,130.92 114.57,201.94 0,0 63.73,55.41 71.87,162.92 0,0 -2.2,157.2 33.67,242.01" /><path
         id="path148"
         style="fill:#553aaa;fill-opacity:1;fill-rule:nonzero;stroke:none"
         d="m 4198.44,3782.68 c 6.59,62.95 19.63,124.61 41.24,184.17 21.12,58.2 51.69,111.39 76.84,167.74 15.65,35.08 29.96,70.89 46.68,105.44 -12.88,-14.76 -28.52,-31.22 -46.95,-48.19 0,0 -220.52,-135.16 -162.92,-324.06 0,0 34.85,-89.42 36.67,-149.18 3.29,21.28 6.2,42.63 8.44,64.08" /><path
         id="path150"
         style="fill:#311f7c;fill-opacity:1;fill-rule:nonzero;stroke:none"
         d="m 4182.01,4320.3 c 0,0 -5.2,-47.82 -32.05,-112 0,0 -120.71,-183.85 -9.28,-290.61 0,0 78.93,-63.91 89.03,-106.72 0,0 -20.26,104.52 15.77,186.44 0,0 29.06,64.43 -3.01,141.98 0,0 -57.71,107.63 -60.46,180.91" /><path
         id="path152"
         style="fill:#553aaa;fill-opacity:1;fill-rule:nonzero;stroke:none"
         d="m 4205.55,3877.46 c -17.38,46.16 -29.37,94.08 -34.05,144.08 -4.57,48.84 -0.11,98.12 -0.94,147.34 -0.51,30.65 -2.31,61.25 -1.82,91.96 -4.61,-15.47 -10.71,-33.26 -18.78,-52.54 0,0 -120.71,-183.85 -9.28,-290.61 0,0 58.55,-47.42 81.23,-87.94 -5.06,16.05 -10.44,31.97 -16.36,47.71" /><path
         id="path154"
         style="fill:#e563ab;fill-opacity:1;fill-rule:nonzero;stroke:none"
         d="m 4252.23,4004.3 c -114.81,18.43 -939.9,18.49 -1054.71,0.07 -18.42,-114.82 -30.63,-230.98 -36.85,-347.7 -2.41,-45.08 31.17,-69.3 75.06,-58.7 44.78,10.84 85.76,17.01 109.81,17.01 76.2,0 137.97,-61.76 137.97,-137.97 0,-76.16 -61.77,-137.94 -137.97,-137.94 -24.05,0 -65.03,6.16 -109.81,16.98 -43.89,10.62 -77.47,-13.6 -75.06,-58.68 6.22,-116.73 18.53,-232.96 36.98,-347.76 114.81,-18.43 231.03,-30.75 347.76,-36.98 45.07,-2.4 69.29,31.19 58.69,75.05 -10.83,44.8 -17.01,85.78 -17.01,109.83 0,76.21 61.75,137.97 137.96,137.97 76.18,0 137.97,-61.76 137.97,-137.97 0,-24.05 -6.17,-65.03 -17,-109.83 -10.61,-43.86 13.61,-77.45 58.69,-75.05 116.72,6.23 232.95,18.55 347.76,36.98 l -0.24,1054.69" /><path
         id="path156"
         style="fill:#4682af;fill-opacity:1;fill-rule:nonzero;stroke:none"
         d="m 3374.08,1976.57 h -46.1 v 1303.11 h 46.1 V 1976.57" /><path
         id="path158"
         style="fill:#4682af;fill-opacity:1;fill-rule:nonzero;stroke:none"
         d="m 3702.3,1976.57 h -46.08 v 1303.11 h 46.08 V 1976.57" /><path
         id="path160"
         style="fill:#4682af;fill-opacity:1;fill-rule:nonzero;stroke:none"
         d="m 3656.1,3129.21 h -288.21 v 49.4 h 288.21 v -49.4" /><path
         id="path162"
         style="fill:#4682af;fill-opacity:1;fill-rule:nonzero;stroke:none"
         d="m 3656.1,2926.78 h -288.21 v 49.4 h 288.21 v -49.4" /><path
         id="path164"
         style="fill:#4682af;fill-opacity:1;fill-rule:nonzero;stroke:none"
         d="m 3656.1,2724.35 h -288.21 v 49.4 h 288.21 v -49.4" /><path
         id="path166"
         style="fill:#4682af;fill-opacity:1;fill-rule:nonzero;stroke:none"
         d="m 3656.1,2521.92 h -288.21 v 49.4 h 288.21 v -49.4" /><path
         id="path168"
         style="fill:#4682af;fill-opacity:1;fill-rule:nonzero;stroke:none"
         d="m 3656.1,2319.49 h -288.21 v 49.4 h 288.21 v -49.4" /><path
         id="path170"
         style="fill:#4682af;fill-opacity:1;fill-rule:nonzero;stroke:none"
         d="m 3656.1,2117.06 h -288.21 v 49.4 h 288.21 v -49.4" /><path
         id="path172"
         style="fill:#e5ba8e;fill-opacity:1;fill-rule:nonzero;stroke:none"
         d="m 3345.01,3696.13 c 37.38,-25.7 87.24,-52.2 120.16,-83.42 3.45,-3.26 18.13,-49.27 2.52,-44.95 -27.29,7.55 -48.73,26.72 -67.49,47.12 -12.38,13.45 -51.43,51.56 -61.93,63.79 -0.67,0.78 -1.55,1.72 -2.53,2.77 5.96,5.15 9.16,15.4 9.27,14.69" /><path
         id="path174"
         style="fill:#eeddcd;fill-opacity:1;fill-rule:nonzero;stroke:none"
         d="m 3602.07,3563.97 c -50.4,16.07 -97.07,37.39 -146.18,57.05 3.5,-8.25 -17.68,-39.71 -17.68,-39.71 0.97,-2.05 92.85,-85.69 144.22,-105.98 l 19.64,88.64" /><path
         id="path176"
         style="fill:#e5ba8e;fill-opacity:1;fill-rule:nonzero;stroke:none"
         d="m 3218.93,3607.53 c 39.95,-18.12 88.02,-35.51 124.4,-59.63 3.96,-2.63 26.35,-45.41 10.25,-43.85 -28.19,2.73 -52.63,17.91 -74.62,34.77 -13.38,10.25 -52.64,37.18 -68.47,49.35 4.85,6.32 4.34,12.53 8.44,19.36" /><path
         id="path178"
         style="fill:#eeddcd;fill-opacity:1;fill-rule:nonzero;stroke:none"
         d="m 3509.46,3519.09 c -52.41,7.13 -121.85,22.69 -173.62,33.58 0,0 -1.01,-6.79 -5.85,-23.79 -0.54,-1.89 -7.54,-16.68 -7.54,-16.68 1.31,-1.85 105.98,-68.27 160.08,-79.39 l 26.93,86.28" /><path
         id="path180"
         style="fill:#edba85;fill-opacity:1;fill-rule:nonzero;stroke:none"
         d="m 3226.59,3593.53 c 0.64,1.3 0.51,2.85 -0.34,4.02 -3.87,5.3 -14.58,19.94 -16.21,21.73 -1.38,1.54 -5.91,12.94 -8.49,19.61 -1.06,2.71 -4.66,3.44 -6.55,1.23 -1.56,-1.85 -2.54,-4.3 -0.94,-7.12 3.55,-6.25 8.62,-16.72 0.99,-22.61 -20.75,-16.02 -43.11,3.8 -49.42,-3.38 l -0.08,-0.1 c -1.9,-2.22 -0.44,-5.7 2.45,-6.13 0.97,-0.15 2.11,-0.34 3.36,-0.57 l 1.75,-0.83 c 3.48,-2.76 10.34,-6.41 19.15,-7.21 l 1.53,-0.49 c 6.93,-3.94 13.97,-5.44 18.7,-5.55 4.1,-0.1 24.4,3.3 30.84,4.41 1.24,0.21 2.28,1 2.84,2.13 l 0.42,0.86" /><path
         id="path182"
         style="fill:#edba85;fill-opacity:1;fill-rule:nonzero;stroke:none"
         d="m 3356.76,3680.54 c -0.55,-1.17 -1.71,-1.93 -3,-1.98 -5.84,-0.23 -22.01,-0.83 -24.16,-0.69 -1.85,0.13 -12.33,-3.01 -18.42,-4.9 -2.48,-0.76 -4.99,1.35 -4.48,3.9 0.42,2.11 1.6,4.16 4.46,4.59 6.34,0.98 16.46,3.22 16.36,11.82 -0.27,23.39 -26.51,28.06 -24.98,36.44 l 0.02,0.11 c 0.51,2.57 3.75,3.47 5.66,1.69 l 2.25,-2.04 1.55,-0.76 c 3.85,-0.91 10.2,-3.7 15.64,-9.41 l 1.18,-0.81 c 6.59,-2.66 11.55,-6.76 14.24,-10 2.34,-2.82 11.18,-18.9 13.98,-24.02 0.53,-0.98 0.56,-2.15 0.07,-3.16 l -0.37,-0.78" /><path
         id="path184"
         style="fill:#0d0d42;fill-opacity:1;fill-rule:nonzero;stroke:none"
         d="m 3460.67,3026.74 c -0.93,-3.08 -1.5,-5.2 -1.47,-5.59 1.41,-12.67 16.13,-163.34 26.66,-239.28 1.78,-12.83 26.15,-14.47 27.05,-1.27 7.44,108.61 14.47,186.91 8.92,275.55 -17.47,-0.89 -43.44,-28.94 -61.16,-29.41" /><path
         id="path186"
         style="fill:#0d0d42;fill-opacity:1;fill-rule:nonzero;stroke:none"
         d="m 3596.27,3080.27 -1.15,0.88 c -4.29,-2.51 -8.55,-5.02 -12.82,-7.55 -11.98,-8.07 -27.01,-5.74 -38.01,-14.79 8.01,-55.52 104.72,-122.31 163.7,-173.72 10.43,-9.09 30.46,1.58 23.06,12.93 -63.5,97.48 -67.94,115.75 -134.78,182.25" /><path
         id="path188"
         style="fill:#000000;fill-opacity:1;fill-rule:nonzero;stroke:none"
         d="m 3515.78,2771.96 c 0.56,-4.84 3.77,-20.07 -2.21,-22.77 -2.74,-1.25 -10.16,-2.39 -17.53,-2.09 -15.76,0.65 -44.59,2.48 -44.79,10.29 -0.24,9.39 18.78,15.73 34.42,22.61 3.91,1.72 28.3,-0.11 28.3,-0.11 l 1.81,-7.93" /><path
         id="path190"
         style="fill:#000000;fill-opacity:1;fill-rule:nonzero;stroke:none"
         d="m 3707.33,2865.73 c 1.95,12.02 0.66,19.36 0.66,19.36 5.29,4.43 18.95,19.27 18.95,19.27 4.81,-4 15.09,-8.89 16.46,-14.41 2.64,-10.6 -1.76,-18.37 -6.19,-27.94 -0.95,-2.05 -2.01,-4.94 -3.28,-8.14 -6.79,-16.99 -34.64,-48.12 -28.85,2.13 l 2.25,9.73" /><path
         id="path192"
         style="fill:#0d0d42;fill-opacity:1;fill-rule:nonzero;stroke:none"
         d="m 3459.94,3023.95 0.79,282.49 89.65,-6.95 -28.42,-245.2 -62.02,-30.34" /><path
         id="path194"
         style="fill:#0d0d42;fill-opacity:1;fill-rule:nonzero;stroke:none"
         d="m 3518.49,3297.51 94.91,30.34 -6.73,-258.06 -10.44,-13.54 c -15.07,-9.91 -31.51,-15.6 -46.67,-5.82 -3.02,1.94 -5,3.77 -5.05,5.15 l -26.02,241.93" /><path
         id="path196"
         style="fill:#e5ba8e;fill-opacity:1;fill-rule:nonzero;stroke:none"
         d="m 3499.73,3674.61 c 6.2,-2.77 7.58,-9.17 5.75,-15.08 l -0.17,-0.57 c 0.06,-0.89 0.02,-1.82 -0.17,-2.8 -3.41,-17.64 -6.81,-35.3 -10.22,-52.95 -2.4,-12.41 -19.48,-11.58 -22.38,-1.87 -3.94,2.17 -6.63,6.17 -5.22,11.19 3.02,10.8 6.32,21.49 9.86,32.11 2.49,8.07 4.98,16.15 7.46,24.22 1.83,5.9 9.95,8.05 15.09,5.75" /><path
         id="path198"
         style="fill:#e5ba8e;fill-opacity:1;fill-rule:nonzero;stroke:none"
         d="m 3496.83,3691.91 c 12.82,7.6 29.84,6.91 41.09,-2.75 2.18,-1.29 4.16,-3.22 5.75,-5.89 13.89,-23.56 4.71,-58.08 -7.6,-80.41 -5.8,-10.52 -14.12,-22.77 -25.37,-28.04 -5.12,-2.39 -10.19,-2.9 -14.84,-1.96 -5.51,0.5 -10.07,3.7 -13.76,8.15 -1.9,2.12 -3.52,4.57 -4.8,7.25 -3.34,6.21 -5.57,13.16 -6.84,18.54 -3.43,14.54 -2.51,29.76 0.74,44.24 3.58,15.98 11.02,32.22 25.63,40.87" /><path
         id="path200"
         style="fill:#e5ba8e;fill-opacity:1;fill-rule:nonzero;stroke:none"
         d="m 3510.75,3593.97 14.45,-62.8 18.34,17 -10.75,65.6 -22.04,-19.8" /><path
         id="path202"
         style="fill:#eeddcd;fill-opacity:1;fill-rule:nonzero;stroke:none"
         d="m 3544.35,3594.23 c -5.85,-8.08 -11.64,-16.24 -16.85,-24.85 -18.48,-30.44 -41.52,-42.95 -51.51,-87.91 -9.71,-43.69 -21.35,-209.78 -17.73,-237.12 0.81,-6.1 8.07,-6.99 12.79,-9.73 9.1,-5.29 19.87,-5.97 30.16,-5.55 11.56,0.47 23.12,1.3 34.67,1.95 11.54,0.65 74.19,6.15 77.04,23.96 7.22,45.33 11.21,238.29 5.97,289.21 -25.72,15.04 -50.37,31.96 -74.54,50.04" /><path
         id="path204"
         style="fill:#3f3124;fill-opacity:1;fill-rule:nonzero;stroke:none"
         d="m 3480.56,3688.85 c 9.54,16.68 26.36,26.95 45.6,30.14 18.77,3.12 39.19,-1.62 52.12,-16.34 7.45,-8.48 48.21,-107.86 74.86,-173.91 14.5,-35.95 13.58,-76.29 -2.83,-111.41 l -0.45,-0.95 c -7.81,-16.66 -24.9,-27.61 -43.76,-30.41 -18.7,-2.78 -37.76,5.45 -49.97,19.58 -20.97,24.26 -23.17,68.81 -24.51,74.66 -4.9,21.15 -5.61,43.36 -7.55,64.92 -1.97,21.86 -1.31,45.98 -8.9,66.8 -6.1,16.8 -53.92,43.15 -34.61,76.92" /><path
         id="path206"
         style="fill:#e5ba8e;fill-opacity:1;fill-rule:nonzero;stroke:none"
         d="m 3512.46,3610.89 0.99,-0.37 c 0.61,-2.4 1.2,-4.8 1.8,-7.21 1.6,3.01 1.81,6.33 3.6,9.28 1.78,2.92 4.1,4.89 7.18,6.37 -3.39,2.03 -6.77,4.07 -10.16,6.1 0.23,-3.07 -0.15,-5.85 -1.8,-8.49 -1.77,-2.85 -3.88,-3.71 -6.84,-5.06 3.5,-3.64 6.99,-7.28 10.5,-10.92 1.21,2.3 1.89,4.36 2.18,6.97 l 0.18,2.65 0.05,0.98 c 0.23,2.16 -1.6,1.73 -5.49,-1.3 -0.92,0.96 -1.85,1.93 -2.77,2.89 l 0.06,0.07 c 1.95,-8.79 13.81,-6.27 14.7,1.71 0.86,7.76 -8.28,12.45 -14.78,9.52 -3.07,-1.38 -5.23,-3.92 -6.36,-7.11 -0.84,-2.41 -0.11,-6.22 -1.23,-8.3 -3.8,-7.08 3.42,-14.11 10.5,-10.93 10.88,4.91 16.04,17.66 14.63,28.9 -0.57,4.48 -6.46,6.28 -9.96,4.36 -8.82,-4.83 -18.04,-17.08 -13.3,-27.5 1.49,-3.28 5.83,-3.32 8.23,-1.29 2.62,2.21 3.78,5.99 1.18,8.6 -0.89,0.89 -2.16,0.83 -3.09,0.08" /><path
         id="path208"
         style="fill:#311f7c;fill-opacity:1;fill-rule:nonzero;stroke:none"
         d="m 790.492,4286.71 c 0,0 27.383,-52.87 43.129,-134.75 0,0 -1.066,-258.65 189.879,-309.04 0,0 127.21,-23.44 167.29,-62.67 0,0 -93.21,98.18 -111.45,203.67 0,0 -13.61,83.35 -100.746,146.84 0,0 -134.848,80.83 -188.102,155.95" /><path
         id="path210"
         style="fill:#553aaa;fill-opacity:1;fill-rule:nonzero;stroke:none"
         d="m 1119.6,3836.5 c -50.06,38.73 -95.64,82.26 -134.928,131.97 -38.383,48.58 -67.527,102.57 -102.223,153.6 -21.597,31.77 -44.523,62.77 -65.109,95.16 5.769,-18.71 11.551,-40.67 16.281,-65.27 0,0 -1.066,-258.65 189.879,-309.04 0,0 94.38,-17.41 146.15,-47.31 -16.36,14 -32.99,27.7 -50.05,40.89" /><path
         id="path212"
         style="fill:#311f7c;fill-opacity:1;fill-rule:nonzero;stroke:none"
         d="m 612.898,4167.7 c 0,0 37.942,-29.57 78.387,-86.18 0,0 92.852,-199.38 242.254,-160.78 0,0 95.881,33.51 137.601,19.57 0,0 -99.546,37.75 -150.249,111.5 0,0 -39.508,58.6 -122.34,72.13 0,0 -121.887,7.55 -185.653,43.76" /><path
         id="path214"
         style="fill:#553aaa;fill-opacity:1;fill-rule:nonzero;stroke:none"
         d="m 1001.89,3954.74 c -48.41,9.5 -95.468,24.52 -140.445,46.84 -43.945,21.81 -83.5,51.53 -125.8,76.72 -26.332,15.7 -53.301,30.25 -79.165,46.83 10.739,-12.06 22.657,-26.61 34.805,-43.61 0,0 92.852,-199.38 242.262,-160.78 0,0 71.133,24.85 117.523,22.82 -16.31,4.14 -32.69,7.94 -49.18,11.18" /><path
         id="path216"
         style="fill:#763499;fill-opacity:1;fill-rule:nonzero;stroke:none"
         d="m 932.367,4277.95 c 114.813,18.42 939.903,18.49 1054.703,0.07 18.43,-114.83 30.63,-230.98 36.85,-347.7 2.42,-45.08 -31.17,-69.31 -75.05,-58.7 -44.79,10.84 -85.76,17 -109.81,17 -76.2,0 -137.97,-61.75 -137.97,-137.97 0,-76.15 61.77,-137.93 137.97,-137.93 24.05,0 65.02,6.16 109.81,16.98 43.88,10.62 77.47,-13.61 75.05,-58.69 -6.22,-116.72 -18.53,-232.95 -36.97,-347.76 -114.81,-18.42 -231.04,-30.75 -347.76,-36.97 -45.07,-2.4 -69.3,31.19 -58.69,75.05 10.83,44.79 17,85.78 17,109.83 0,76.2 -61.74,137.96 -137.96,137.96 -76.17,0 -137.96,-61.76 -137.96,-137.96 0,-24.05 6.17,-65.04 16.99,-109.83 10.62,-43.86 -13.6,-77.45 -58.68,-75.05 -116.73,6.22 -232.96,18.55 -347.761,36.97 l 0.238,1054.7" /><path
         id="path218"
         style="fill:#edba85;fill-opacity:1;fill-rule:nonzero;stroke:none"
         d="m 1087.47,3174.02 c 0,0 -10.88,-2.57 -12.31,-0.25 -1.42,2.32 8.83,17.12 8.65,20 -2.69,3.73 -8.03,3.87 -11.03,2.1 -3.79,-9.05 -16.79,-40.15 -16.79,-40.15 l 31.48,18.3" /><path
         id="path220"
         style="fill:#edba85;fill-opacity:1;fill-rule:nonzero;stroke:none"
         d="m 1058.16,3134.84 1.51,0.72 c 5.25,3.84 39.7,29.08 41.48,32.31 1.95,3.48 5.36,33.07 5.36,33.07 l -7.23,26.29 c 0,0 -6.71,-4.51 -5.16,-11.19 -3.13,-3.01 -8.48,-8.96 -2.44,-19.67 0.49,-11.4 -5.08,-19.85 -5.08,-19.85 0,0 -27.54,-13.47 -30.61,-20.8 l -6.21,-14.87 c -0.44,-1.05 -0.43,-2.25 0.01,-3.36 1.02,-2.49 3.95,-3.91 6.57,-3.16 l 1.8,0.51" /><path
         id="path222"
         style="fill:#edba85;fill-opacity:1;fill-rule:nonzero;stroke:none"
         d="m 925.145,3228.08 c 0,0 5.007,-9.2 7.457,-8.5 2.441,0.71 6.086,18.28 8.14,20.23 4.192,0.87 7.586,-2.65 8.258,-5.94 -3.77,-9.07 -16.715,-40.2 -16.715,-40.2 l -7.14,34.41" /><path
         id="path224"
         style="fill:#edba85;fill-opacity:1;fill-rule:nonzero;stroke:none"
         d="m 916.848,3180.12 -0.446,1.54 c -0.664,6.3 -4.957,47.71 -3.882,51.24 1.152,3.81 19.007,27.4 19.007,27.4 l 22.223,14.02 c 0,0 1.113,-7.78 -4.359,-11.54 -0.09,-4.27 -0.793,-12.16 -11.77,-15.79 -7.996,-7.86 -10.242,-17.7 -10.242,-17.7 0,0 7.957,-28.28 4.906,-35.62 l -6.18,-14.89 c -0.441,-1.06 -1.257,-1.91 -2.289,-2.41 -2.308,-1.11 -5.078,-0.14 -6.199,2.16 l -0.769,1.59" /><path
         id="path226"
         style="fill:#ecddcd;fill-opacity:1;fill-rule:nonzero;stroke:none"
         d="m 876.191,3095.35 34.141,104.62 c 0,0 7.055,-5.61 32.473,0.59 l -22.91,-139.99 c -0.547,-5.69 -3.223,-11.04 -7.547,-15.1 l -113.809,-82.59 -32.863,66.97 91.258,38.24 c 9.828,6.52 16.711,16.26 19.257,27.26" /><path
         id="path228"
         style="fill:#240d3f;fill-opacity:1;fill-rule:nonzero;stroke:none"
         d="m 894.895,2718.11 c -49.485,1.69 -91.325,4.45 -140.657,9.02 -2.695,-11.48 -6.836,-33.6 -10.699,-53.36 -4.539,-23.26 -6.652,-46.93 -6.43,-70.63 l 0.004,-0.28 c 1.223,-129.64 11.602,-427.52 11.586,-439.4 -0.008,-9.26 7.168,-9.84 16.012,-11.17 8.023,-1.2 6.676,-1.93 8.016,6.9 5.75,37.98 45.601,322.9 55.082,427.6 0.8,-1.15 1.601,-2.3 2.402,-3.45 13.434,-19.25 66.242,-96.45 70.75,-101.81 -9.949,-29.76 -35.867,-238.83 -35.336,-244.72 -0.039,-3.29 25.41,-7.87 25.309,-1.39 16.566,89.49 81.445,222.14 68.492,274.64 -6.926,28.06 -46.473,142.08 -64.531,208.05" /><path
         id="path230"
         style="fill:#e5ba8e;fill-opacity:1;fill-rule:nonzero;stroke:none"
         d="m 812.195,3154.79 c 12.469,10.88 29.485,8.43 45.039,0.33 2.868,-0.94 21.493,-15.94 23.895,-18.64 4.391,-4.94 8.769,-43.02 1.066,-69.7 -3.632,-12.58 -5.843,-29.57 -15.984,-35.35 -13.258,-7.57 -38.313,-4.95 -43.773,-0.91 -2.774,1.9 -5.321,4.21 -7.536,6.83 -5.57,6.02 -19.914,51.64 -20.324,67.96 -0.441,18.01 3.43,37.1 17.617,49.48" /><path
         id="path232"
         style="fill:#e5ba8e;fill-opacity:1;fill-rule:nonzero;stroke:none"
         d="m 804.004,3080.84 c 2.418,11.11 45.684,-16.1 45.238,-20.15 -1.996,-18.23 -16.73,-66.67 -17.676,-69.02 -3.558,-8.86 -44.418,1.25 -42.636,11.64 4.449,25.95 9.476,51.8 15.074,77.53" /><path
         id="path234"
         style="fill:#ecddcd;fill-opacity:1;fill-rule:nonzero;stroke:none"
         d="m 756.98,2751.34 c -1.066,-12.32 -2.64,-24.58 -4.523,-36.69 51.602,-9.09 103.711,-13.71 155.578,-11.91 -2.793,14.84 -5.031,27.63 -5.418,30.68 -2.312,18.47 -9.691,97.83 -9.961,124.81 -7.777,35.44 -16.429,70.71 -30.582,104.31 -10.594,11.78 -25.101,25.53 -38.32,34.49 -38.566,26.16 -70.816,-7.48 -74.234,-30.82 -5.336,-36.5 15.113,-126.46 7.46,-214.87" /><path
         id="path236"
         style="fill:#9c5e45;fill-opacity:1;fill-rule:nonzero;stroke:none"
         d="m 880.723,3138.13 c -1.645,4.52 -4.235,8.17 -6.075,10.54 -16.46,21.19 -30.015,23.85 -53.808,20.81 -5.508,-0.71 -11,0.28 -16.531,-1.02 -12.829,-3 -22.493,-11.66 -29.579,-22.42 -3.269,-4.96 -7.136,-9.23 -10.488,-13.83 -4.691,-6.44 -4.847,-12.02 -6.523,-19.84 -6.489,-30.35 -43.985,-41.85 -45.918,-74.65 -1.196,-20.31 13.426,-37.11 31.519,-44.22 17.828,-7 38.688,-2.9 53.844,8.35 17.836,13.23 24.578,32.31 25.141,53.97 0.269,10.3 -0.899,21.26 2.508,31.2 2.714,7.93 8.429,12.01 15.929,15.26 14.324,6.19 47.969,13.99 39.981,35.85" /><path
         id="path238"
         style="fill:#9c5e45;fill-opacity:1;fill-rule:nonzero;stroke:none"
         d="m 880.723,3138.13 4.789,1.75 c -1.938,5.29 -4.86,9.36 -6.84,11.91 -6.723,8.66 -13.25,14.7 -20.465,18.54 -7.203,3.85 -14.918,5.31 -23.312,5.29 -4.61,0 -9.457,-0.42 -14.704,-1.09 v 0 c -1.628,-0.21 -3.406,-0.25 -5.347,-0.25 l -2.078,0.01 c -2.887,-0.01 -6.129,-0.05 -9.625,-0.87 h 0.004 c -14.457,-3.38 -25.149,-13.12 -32.668,-24.57 -2.985,-4.55 -6.778,-8.75 -10.356,-13.64 -2.754,-3.76 -4.273,-7.53 -5.199,-11.11 -0.938,-3.6 -1.391,-6.97 -2.188,-10.66 -1.425,-6.66 -4.539,-12.35 -8.711,-17.84 -6.23,-8.23 -14.855,-15.73 -22.425,-24.53 -7.532,-8.76 -14.09,-19.25 -14.883,-33.05 l -0.078,-2.62 c -0.004,-10.9 4.039,-20.81 10.371,-28.78 6.34,-7.98 14.949,-14.13 24.449,-17.86 6.617,-2.6 13.574,-3.8 20.496,-3.8 13.719,0.01 27.293,4.68 38.246,12.79 9.621,7.13 16.383,16 20.684,25.89 4.312,9.88 6.222,20.73 6.515,32.04 0.036,1.38 0.047,2.75 0.047,4.11 0,2.37 -0.031,4.71 -0.031,7.01 -0.012,6.74 0.316,13.05 2.223,18.57 1.101,3.17 2.633,5.33 4.742,7.24 2.113,1.89 4.914,3.49 8.387,4.99 v 0 c 5.941,2.6 16.476,5.75 25.746,10.57 4.652,2.44 9.07,5.32 12.554,9.12 3.473,3.76 5.989,8.74 5.961,14.47 0.004,2.64 -0.507,5.37 -1.515,8.12 l -4.789,-1.75 -4.785,-1.74 c 0.648,-1.79 0.898,-3.3 0.898,-4.63 -0.023,-2.81 -1.055,-5.09 -3.297,-7.6 -3.34,-3.72 -9.516,-7.16 -16.113,-9.93 -6.613,-2.81 -13.508,-5.04 -18.707,-7.27 v 0 c -4.028,-1.75 -7.832,-3.81 -11.133,-6.76 -3.297,-2.92 -5.981,-6.78 -7.594,-11.53 -2.523,-7.4 -2.762,-14.87 -2.773,-21.87 0,-2.39 0.035,-4.74 0.035,-7.01 0,-1.31 -0.012,-2.59 -0.043,-3.84 -0.27,-10.35 -2.012,-19.86 -5.668,-28.24 -3.672,-8.37 -9.199,-15.66 -17.418,-21.77 -9.191,-6.84 -20.797,-10.8 -32.172,-10.79 -5.742,0 -11.426,1 -16.769,3.1 -7.903,3.09 -15.086,8.26 -20.192,14.71 -5.109,6.45 -8.156,14.08 -8.164,22.44 l 0.063,2.02 c 0.437,7.24 2.757,13.18 6.3,18.82 5.293,8.44 13.524,15.95 21.383,24.34 7.813,8.39 15.379,17.91 18.129,30.72 0.879,4.13 1.344,7.45 2.074,10.21 0.743,2.77 1.649,5.02 3.586,7.7 3.121,4.31 7.063,8.65 10.625,14.03 6.649,10.07 15.285,17.64 26.481,20.26 h 0.004 c 2.16,0.51 4.554,0.6 7.293,0.6 l 2.078,-0.01 c 2.054,0 4.273,0.03 6.644,0.33 v 0 c 4.985,0.64 9.418,1.01 13.407,1.01 7.308,-0.02 13.011,-1.18 18.527,-4.09 5.508,-2.93 11.004,-7.82 17.203,-15.8 1.699,-2.18 3.953,-5.42 5.309,-9.15 l 4.789,1.74" /><path
         id="path240"
         style="fill:#161311;fill-opacity:1;fill-rule:nonzero;stroke:none"
         d="m 858.633,2222.16 c 0.914,7.46 0.168,18.99 9.898,19.62 5.16,0.34 10.067,-1.57 14.59,-4.31 1.535,2.34 5.094,3.72 7.942,1.4 10.375,-8.44 21.609,-16.39 31.234,-25.67 5.027,-4.86 12.562,-15 7.879,-22.39 -4.578,-7.23 -18.731,-3.36 -25.149,-1.65 -12.339,3.28 -25.984,6.68 -37.672,11.83 -9.695,4.27 -9.89,11.58 -8.722,21.17" /><path
         id="path242"
         style="fill:#161311;fill-opacity:1;fill-rule:nonzero;stroke:none"
         d="m 751.852,2159.59 c -0.582,7.51 -3.59,18.65 5.824,21.21 4.992,1.34 10.179,0.44 15.156,-1.36 1.039,2.61 4.258,4.66 7.512,2.95 11.828,-6.22 24.418,-11.81 35.679,-19 5.891,-3.76 15.282,-12.22 12.153,-20.39 -3.063,-8 -17.696,-6.99 -24.328,-6.59 -12.743,0.78 -26.793,1.43 -39.27,4.16 -10.34,2.27 -11.98,9.4 -12.726,19.02" /><path
         id="path244"
         style="fill:#e5ba8e;fill-opacity:1;fill-rule:nonzero;stroke:none"
         d="m 828.215,3069.89 c -1.352,1.53 -3.07,2.11 -4.738,3.21 -1.028,0.67 -2.047,1.41 -2.891,2.3 l -2.012,3.02 c -0.261,1.22 -0.883,0.98 -1.851,-0.72 -1.602,-0.46 -2.028,-1.05 -1.274,-1.8 0.039,-0.92 1.367,-2.72 1.715,-3.79 0.918,-2.82 1.211,-5.68 1.188,-8.63 1.507,1.91 3.015,3.81 4.523,5.72 -5.918,-2.28 -4.023,9.43 -4.043,12.09 -0.055,6.63 -9.738,8.21 -11.582,1.66 -1.883,-6.69 -1.703,-15.08 2.832,-20.69 4.309,-5.34 10.938,-6.81 17.109,-4.1 1.879,0.83 3.122,3.19 3.106,5.17 -0.055,6.74 -1.445,14.68 -5.859,20.04 -3.583,4.35 -10.665,7.08 -15.145,2.31 -8.695,-9.25 8.281,-26.91 18.141,-20.81 1.8,1.11 2.191,3.41 0.781,5.02" /><path
         id="path246"
         style="fill:#eeddcd;fill-opacity:1;fill-rule:nonzero;stroke:none"
         d="m 1048.33,3153.91 c -18,-40 -42.57,-84.83 -53.932,-126.98 -1.234,-4.59 10.252,-51.5 21.302,-39.67 19.35,20.68 27.64,48.22 33.01,75.41 3.26,16.53 14.92,62.69 18.74,82.29 -7.8,1.54 -11.53,6.53 -19.12,8.95" /><path
         id="path248"
         style="fill:#eeddcd;fill-opacity:1;fill-rule:nonzero;stroke:none"
         d="m 835.051,2974.38 c 52.414,7.13 108.558,42.3 160.324,53.19 l 20.525,-40.33 c -1.32,-1.86 -105.994,-68.28 -160.084,-79.39 l -20.765,66.53" /><path
         id="path250"
         style="fill:#e5ba8e;fill-opacity:1;fill-rule:nonzero;stroke:none"
         d="m 2375.73,3376.53 c -6.65,4.94 -17.67,-1.77 -16.98,-9.79 l 0.06,-0.61 c -1.73,-2.36 -2.59,-5.44 -1.84,-9.06 1.87,-9.09 2.69,-18.3 4.05,-27.47 1.16,-7.82 2.31,-17.61 6.73,-24.33 2.75,-4.18 7.77,-6.54 12.74,-5.17 5.35,1.48 9.89,7.02 9.31,17.8 -1.46,27.03 -8.17,54.26 -14.07,58.63" /><path
         id="path252"
         style="fill:#3f3124;fill-opacity:1;fill-rule:nonzero;stroke:none"
         d="m 2388.59,3329.09 c -9.41,0.25 -27.07,-4.27 -27.07,-4.27 0,0 -27.14,-25.68 -35.52,-36.56 -3.2,-4.15 -6.18,-8.76 -4.73,-13.99 1.34,-4.86 6.23,-7.8 11.4,-8.04 5.65,-0.26 11.25,2.23 16.5,3.91 5.42,1.74 28.66,11.5 40.62,16.55 4.29,1.82 6.84,6.25 6.27,10.88 -1.4,11.45 -4.3,31.44 -7.47,31.52" /><path
         id="path254"
         style="fill:#e5ba8e;fill-opacity:1;fill-rule:nonzero;stroke:none"
         d="m 2699.8,3596.56 c -7.73,-2.97 -7.97,-15.88 -0.83,-19.59 l 0.55,-0.28 c 1.05,-2.73 3.2,-5.1 6.66,-6.41 8.67,-3.29 16.88,-7.54 25.35,-11.31 7.22,-3.21 16.1,-7.49 24.15,-7.36 5.01,0.08 9.69,3.05 11.19,7.98 1.62,5.31 -0.62,12.12 -10.03,17.41 -23.59,13.25 -50.18,22.18 -57.04,19.56" /><path
         id="path256"
         style="fill:#3f3124;fill-opacity:1;fill-rule:nonzero;stroke:none"
         d="m 2746.74,3581.98 c -5.25,-7.81 -10.91,-25.15 -10.91,-25.15 0,0 7.14,-36.67 11.83,-49.58 1.79,-4.92 4.07,-9.91 9.27,-11.5 4.82,-1.46 9.92,1.09 12.9,5.31 3.25,4.64 4.15,10.69 5.55,16.04 1.43,5.5 5.65,30.36 7.79,43.15 0.77,4.6 -1.6,9.13 -5.81,11.13 -10.42,4.96 -28.84,13.22 -30.62,10.6" /><path
         id="path258"
         style="fill:#0d0d42;fill-opacity:1;fill-rule:nonzero;stroke:none"
         d="m 2510.63,3678.72 c -6.01,-31.44 -19.01,-62.2 -40.21,-91.31 87,-23.33 256.07,-41.02 256.07,-41.02 0,0 31.36,39.88 9.34,50.63 -18.54,9.05 -136.74,41.52 -225.2,81.7" /><path
         id="path260"
         style="fill:#0d0d42;fill-opacity:1;fill-rule:nonzero;stroke:none"
         d="m 2527.81,3661.62 c -28.22,67.77 -64.68,166.98 -100.86,231.56 -17.16,30.63 -57.66,37.12 -84.72,14.76 -2.52,-2.08 -4.28,-3.09 -4.87,-2.47 -7.16,7.43 -25.8,-34.96 -34.62,-41.73 -8.23,-6.33 -9.62,-18.47 -3.48,-26.7 l 1.93,-2.55 c -0.59,-4.84 0.59,-9.91 3.65,-14.02 4.89,-6.56 85.03,-129.31 130.77,-205.13 14.17,-23.49 46.74,-39.78 76.12,-29.64 l -6.4,7.33 c 28.41,11.8 34.3,40.2 22.48,68.59" /><path
         id="path262"
         style="fill:#0d0d42;fill-opacity:1;fill-rule:nonzero;stroke:none"
         d="m 2351.88,3595.8 c 11.66,58.63 24.54,156.96 36.93,226.65 -7.43,18.38 -21.82,33.31 -62.67,51.69 -54.45,24.5 -40.19,18.05 -40.72,18.38 -6.43,-20.97 -14.75,-126.49 -14.95,-139.47 -1.77,-35.2 -4.56,-150.69 -0.6,-168.47 11.54,-51.67 76.76,-244.85 78.74,-246.66 7.29,-6.67 38.02,-3.06 47.53,1.04 8.63,3.73 6.25,9.96 5.3,19.39 -2.73,26.99 -36.75,182.78 -49.56,237.45" /><path
         id="path264"
         style="fill:#e5ba8e;fill-opacity:1;fill-rule:nonzero;stroke:none"
         d="m 2208.32,4246.91 c -0.36,1.24 -0.73,2.48 -1.08,3.72 -0.84,2.96 -0.32,6.01 1.02,8.75 l -0.18,0.86 c -0.74,4.1 -0.04,7.56 1.58,10.32 -0.48,1.21 -0.94,2.42 -1.42,3.62 -3.09,7.95 -0.23,17.26 7.83,20.92 4.49,2.04 8.75,1.79 12.45,0.07 7.4,4.65 18.03,3.99 22.23,-6.42 14.55,-36 27.58,-72.57 39.05,-109.66 4.6,-14.86 -57.86,-21.81 -59.58,-18.19 -9.75,20.57 -27.73,76.48 -32.19,98.79 -0.55,2.79 9.61,-14.97 10.29,-12.78" /><path
         id="path266"
         style="fill:#e5ba8e;fill-opacity:1;fill-rule:nonzero;stroke:none"
         d="m 2143.32,4358.54 c 5.15,17.16 18.83,33.66 36.02,39.69 20.12,7.05 42.91,3.41 59.2,-10.79 12.5,-10.9 19.99,-24.48 24.01,-39.31 13.11,-33.86 13.69,-57.22 -7.65,-88.54 -11.81,-17.33 -81.49,-57.46 -100.14,-12.57 -6.88,16.53 -7.18,37.05 -10.78,54.44 -3.95,19.12 -6.38,37.99 -0.66,57.08" /><path
         id="path268"
         style="fill:#413123;fill-opacity:1;fill-rule:nonzero;stroke:none"
         d="m 2274.36,4379.8 c -23.46,21.16 -60.2,26.02 -89.82,23.89 -14.07,-1.02 -28.73,-3.94 -40.29,-12.52 -12.67,-9.4 -20.52,-26.93 -12.68,-41.82 8.72,-16.54 26.65,-15.12 42.44,-15.24 11.31,-0.09 22.13,-4.62 30.35,-12.38 8.92,-8.42 10.91,-18.22 13.88,-29.28 -21.15,-17.63 11.08,-42.8 18.92,-30.89 6.64,-6.07 18.41,-9.37 25.78,-8.24 4.14,0.64 17.36,39.14 24.08,89.86 1.17,13.93 -2.95,27.85 -12.66,36.62" /><path
         id="path270"
         style="fill:#413123;fill-opacity:1;fill-rule:nonzero;stroke:none"
         d="m 2218.24,4292.45 c -19.41,-16.19 -43.19,-26.41 -68.22,-29.4 1.16,-5.59 2.64,-11 4.73,-16.04 8.95,-21.52 29.62,-23.49 50.03,-17.81 l 2.41,1.74 c 11.8,8.69 22.12,18.7 29.97,30.62 3.89,-3.56 -21.9,41.94 -18.92,30.89" /><path
         id="path272"
         style="fill:#e0e6ff;fill-opacity:1;fill-rule:nonzero;stroke:none"
         d="m 2274.2,4226.48 c -8.76,2.57 -15.56,-5.37 -22.03,-11.88 -0.09,-0.1 -23.86,-25.27 -30.75,-62.01 -6.1,-32.5 -19.14,-62.23 -13.59,-91.28 11.8,-61.82 59.39,-205.97 67.97,-218.35 10.43,-15.05 156.42,30.26 152.32,64.67 -6.39,23.56 -3.56,13.95 -10.36,36.89 -8.08,32.18 -117.32,274.24 -143.56,281.96" /><path
         id="path274"
         style="fill:#e5ba8e;fill-opacity:1;fill-rule:nonzero;stroke:none"
         d="m 2119.72,4043.51 c -2.32,3.93 -78.39,28.3 -84.74,30.26 -3.65,-6.93 -7.29,-13.88 -11.03,-20.77 l 1.1,0.08 c 7.87,-4.64 68.74,-42.02 76.8,-42.95 3.11,-0.36 6.84,0.43 8.29,3.66 2.48,5.51 4.95,11.02 7.42,16.53 1.83,4.07 4.77,8.75 2.16,13.19" /><path
         id="path276"
         style="fill:#edba85;fill-opacity:1;fill-rule:nonzero;stroke:none"
         d="m 2058.31,4060.14 c -5.87,1.33 -17.14,5.5 -27.58,12.96 -2.69,4.22 -4.89,7.61 -5.59,8.53 -1.6,2.08 -6.57,16.78 -9.4,25.37 -1.15,3.48 -5.4,4.88 -7.72,2.4 -1.94,-2.06 -3.2,-4.96 -1.39,-8.65 4,-8.21 9.63,-21.82 0.35,-28.05 -25.27,-16.96 -51.14,10.56 -58.89,2.56 l -0.11,-0.11 c -2.34,-2.49 -0.73,-6.98 2.69,-7.92 1.15,-0.3 2.49,-0.69 3.98,-1.15 l 2.04,-1.26 c 4.03,-3.88 12.07,-9.32 22.52,-11.52 l 1.8,-0.8 c 8.09,-5.8 16.41,-8.62 22.03,-9.4 2.43,-0.34 9.72,-0.15 17.37,0.19 3.69,-1.77 22.19,-5.56 24.24,-6.4 4.6,10.9 8.89,12.43 13.66,23.25" /><path
         id="path278"
         style="fill:#c5d1f8;fill-opacity:1;fill-rule:nonzero;stroke:none"
         d="m 2028.68,4024.82 10.83,57.08 69.65,-21.24 93.68,-27.46 c 10.39,-3.05 20.92,4.26 21.71,15.06 3.24,45 13.62,145.85 41.04,137.93 0,0 42.03,-20.04 26.24,-117.92 -5.12,-31.68 -10.32,-54.99 -14.54,-71.15 -4.38,-16.78 -20.66,-27.54 -37.8,-24.85 -25.13,3.95 -210.81,52.55 -210.81,52.55" /><path
         id="path280"
         style="fill:#e5ba8e;fill-opacity:1;fill-rule:nonzero;stroke:none"
         d="m 2215.88,4308.43 c -2.65,0.46 -3.91,-0.17 -3.77,-1.87 -0.93,-2.18 0.17,-2.24 3.31,-0.17 1.13,-0.68 2.26,-1.35 3.38,-2.03 l -0.73,0.66 c 0.69,-1.78 1.39,-3.56 2.09,-5.34 -0.15,2.31 -0.32,4.46 0.2,6.72 2.24,9.76 -12.78,14.05 -15.06,4.21 -1.71,-7.41 -1.22,-20.57 9.93,-18.52 7.11,1.3 10.15,9.72 9.11,16.1 -1.02,6.27 -6.81,11.56 -13.22,8.25 -4.59,-2.37 -7.08,-9.84 -1.39,-12.55 3,-1.44 7.24,0.82 6.15,4.54" /><path
         id="path282"
         style="fill:#1d262d;fill-opacity:1;fill-rule:nonzero;stroke:none"
         d="m 2601.04,345.352 c -4.33,-4.43 -8.04,-9.313 -11.08,-14.532 l -4.66,2.41 c -0.67,2.981 -3.49,5.032 -6.58,4.668 -3.31,-0.398 -5.69,-3.386 -5.3,-6.699 0.39,-3.308 3.39,-5.687 6.7,-5.301 l 1.84,0.532 4.51,-2.34 c -2.51,-5.539 -4.33,-11.391 -5.39,-17.442 l 7.46,-1.308 c 2.3,13.051 8.5,25.058 17.92,34.711 l -5.42,5.301" /><path
         id="path284"
         style="fill:#1d262d;fill-opacity:1;fill-rule:nonzero;stroke:none"
         d="m 2655.91,368.371 c -1.71,0 -3.41,-0.062 -5.09,-0.172 l -0.74,6.262 c 1.88,1.488 2.96,3.891 2.66,6.437 -0.46,3.942 -4.02,6.754 -7.96,6.293 -3.93,-0.472 -6.74,-4.019 -6.28,-7.961 0.3,-2.539 1.9,-4.609 4.05,-5.628 l 0.74,-6.243 c -7.14,-1.16 -14.04,-3.32 -20.6,-6.468 l 3.27,-6.832 c 9.34,4.472 19.42,6.73 29.95,6.73 4.96,0 9.93,-0.527 14.75,-1.578 l 1.61,7.418 c -5.35,1.152 -10.85,1.742 -16.36,1.742" /><path
         id="path286"
         style="fill:#1d262d;fill-opacity:1;fill-rule:nonzero;stroke:none"
         d="m 2721.94,342.898 c 3.31,0.411 5.66,3.411 5.25,6.723 -0.4,3.309 -3.42,5.66 -6.72,5.258 -3.09,-0.379 -5.35,-3.039 -5.3,-6.09 l -4.16,-3.629 c -4.18,4.301 -8.9,8.129 -14.08,11.391 l -4.03,-6.41 c 11.33,-7.149 20.2,-17.262 25.63,-29.262 l 6.9,3.133 c -2.51,5.547 -5.67,10.718 -9.42,15.449 l 4.02,3.508 1.91,-0.071" /><path
         id="path288"
         style="fill:#1d262d;fill-opacity:1;fill-rule:nonzero;stroke:none"
         d="m 2650.43,266.281 c -3.85,-0.23 -7.74,-0.34 -11.57,-0.34 -8.8,0 -17.32,0.61 -24.77,1.789 -3.91,0.622 -8.47,1.551 -12.71,2.918 10.46,-18.597 30.7,-31.25 53.89,-31.25 28.55,0 52.62,19.161 59.49,45.043 -6.82,-4.492 -15.06,-8.25 -24.59,-11.23 -11.79,-3.672 -25.54,-6.07 -39.74,-6.93" /><path
         id="path290"
         style="fill:#1d262d;fill-opacity:1;fill-rule:nonzero;stroke:none"
         d="m 2681.69,297.141 c -7.5,0 -13.6,6.109 -13.6,13.609 0,7.5 6.1,13.602 13.6,13.602 7.5,0 13.61,-6.102 13.61,-13.602 0,-7.5 -6.11,-13.609 -13.61,-13.609 z m -47.37,-9.082 c -10.2,0 -18.49,8.3 -18.49,18.5 0,10.203 8.29,18.492 18.49,18.492 10.2,0 18.5,-8.289 18.5,-18.492 0,-10.2 -8.3,-18.5 -18.5,-18.5 z m 21.59,65.152 c -33.52,0 -60.79,-26.66 -60.79,-59.441 0,-4.25 0.46,-8.481 1.37,-12.61 6.74,-4.828 27.06,-8.898 53.48,-7.308 28.78,1.73 52.96,9.57 66.71,21.578 -0.04,1.961 -0.2,3.91 -0.44,5.82 -3.8,29.621 -29.74,51.961 -60.33,51.961" /><path
         id="path292"
         style="fill:#1d262d;fill-opacity:1;fill-rule:nonzero;stroke:none"
         d="m 2815.95,334.539 c -2.95,1.16 -8.05,3.082 -13.83,2.371 -5.5,-0.68 -8.43,-3.398 -8.43,-10.07 v -8.649 h 22.27 v -17.179 h -22.27 v -54.543 h -19.32 v 54.543 h -13.4 v 17.179 h 13.4 v 8.879 c 0,16.801 8.96,27.828 25.68,27.828 6.43,0 11.58,-1.218 15.9,-3.089 v -17.27" /><path
         id="path294"
         style="fill:#1d262d;fill-opacity:1;fill-rule:nonzero;stroke:none"
         d="m 2862.97,301.219 c -1.76,0.301 -3.57,0.461 -5.26,0.461 -8.96,0 -15.1,-5.469 -15.1,-16.141 v -39.07 h -19.31 v 71.722 h 18.73 v -7.851 c 4.51,6.742 11.39,9.769 20.2,9.769 4.14,0 8.48,-1.277 10.94,-3.367 l -10.2,-15.523" /><path
         id="path296"
         style="fill:#1d262d;fill-opacity:1;fill-rule:nonzero;stroke:none"
         d="m 2888.5,289.102 h 31.76 c -1.78,9.179 -7.34,14.347 -15.63,14.347 -9.1,0 -14.42,-5.469 -16.13,-14.347 z m 51.14,-6.661 c 0,-2.222 -0.14,-4.89 -0.37,-6.519 h -50.84 c 2.07,-10.363 9.33,-14.871 18.43,-14.871 6.21,0 12.95,2.508 18.14,6.871 l 11.31,-12.43 c -8.13,-7.472 -18.5,-10.883 -30.56,-10.883 -21.99,0 -37.23,14.961 -37.23,37.532 0,22.57 14.81,37.968 36.26,37.968 20.65,0 34.8,-15.32 34.86,-37.668" /><path
         id="path298"
         style="fill:#1d262d;fill-opacity:1;fill-rule:nonzero;stroke:none"
         d="m 2965.03,289.102 h 31.76 c -1.78,9.179 -7.33,14.347 -15.62,14.347 -9.1,0 -14.44,-5.469 -16.14,-14.347 z m 51.15,-6.661 c 0,-2.222 -0.15,-4.89 -0.37,-6.519 h -50.84 c 2.07,-10.363 9.31,-14.871 18.42,-14.871 6.21,0 12.95,2.508 18.14,6.871 l 11.32,-12.43 c -8.14,-7.472 -18.51,-10.883 -30.57,-10.883 -21.98,0 -37.23,14.961 -37.23,37.532 0,22.57 14.81,37.968 36.26,37.968 20.66,0 34.8,-15.32 34.87,-37.668" /><path
         id="path300"
         style="fill:#1d262d;fill-opacity:1;fill-rule:nonzero;stroke:none"
         d="m 3042.87,282.359 c 0,-11.32 7.48,-19.757 18.42,-19.757 11.4,0 18.51,8.808 18.51,19.757 0,10.961 -7.11,19.762 -18.51,19.762 -10.94,0 -18.42,-8.43 -18.42,-19.762 z m 56.76,0 c 0,-21.527 -14.95,-37.75 -34.7,-37.75 -9.63,0 -16.44,3.782 -21.1,9.332 v -37.082 h -19.25 v 101.332 h 18.88 v -7.921 c 4.66,5.839 11.54,9.839 21.39,9.839 19.83,0 34.78,-16.207 34.78,-37.75" /><path
         id="path302"
         style="fill:#1d262d;fill-opacity:1;fill-rule:nonzero;stroke:none"
         d="m 3128.08,246.469 h -19.32 v 71.722 h 19.32 z m 2.59,95.179 c 0,-6.957 -5.4,-12.289 -12.35,-12.289 -6.97,0 -12.3,5.332 -12.3,12.289 0,6.961 5.33,12.434 12.3,12.434 6.95,0 12.35,-5.473 12.35,-12.434" /><path
         id="path304"
         style="fill:#1d262d;fill-opacity:1;fill-rule:nonzero;stroke:none"
         d="m 3160.32,292.652 27.01,25.539 h 23.69 l -34.79,-33.75 35.01,-37.972 h -23.76 l -27.16,29.011 V 246.469 H 3141 v 106.57 h 19.32 v -60.387" /><path
         id="path306"
         style="fill:#1d262d;fill-opacity:1;fill-rule:nonzero;stroke:none"
         d="m 1844.12,266.301 v 32.078 c -3.95,6.16 -12.45,11.43 -21.24,11.43 -14.21,0 -22.7,-11.719 -22.7,-27.387 0,-15.68 8.49,-27.25 22.7,-27.25 8.79,0 17.29,4.98 21.24,11.129 z m 0,-19.192 v 10.551 c -5.27,-7.18 -13.92,-12.301 -23.88,-12.301 -18.45,0 -31.49,14.063 -31.49,37.063 0,22.558 12.89,37.199 31.49,37.199 9.53,0 18.17,-4.68 23.88,-12.449 v 37.648 h 10.99 v -97.711 h -10.99" /><path
         id="path308"
         style="fill:#1d262d;fill-opacity:1;fill-rule:nonzero;stroke:none"
         d="m 1904.03,310.539 c -15.09,0 -22.56,-12.738 -23.15,-23.578 h 46.44 c -0.15,10.539 -7.18,23.578 -23.29,23.578 z m -34.71,-27.98 c 0,20.511 14.64,37.062 34.85,37.062 21.39,0 33.99,-16.699 33.99,-37.941 v -2.778 h -57.28 c 0.88,-13.332 10.26,-24.461 25.49,-24.461 8.06,0 16.26,3.219 21.83,8.93 l 5.27,-7.172 c -7.03,-7.027 -16.55,-10.84 -28.12,-10.84 -20.95,0 -36.03,15.082 -36.03,37.2" /><path
         id="path310"
         style="fill:#1d262d;fill-opacity:1;fill-rule:nonzero;stroke:none"
         d="m 1946.06,256.488 5.72,7.91 c 4.68,-5.418 13.62,-10.109 23.29,-10.109 10.84,0 16.7,5.133 16.7,12.16 0,17.141 -43.8,6.59 -43.8,32.813 0,10.988 9.52,20.359 26.37,20.359 12.01,0 20.5,-4.539 26.22,-10.25 l -5.14,-7.621 c -4.24,5.129 -12,8.941 -21.08,8.941 -9.67,0 -15.68,-4.839 -15.68,-11.132 0,-15.528 43.8,-5.278 43.8,-32.817 0,-11.863 -9.52,-21.383 -27.83,-21.383 -11.57,0 -21.39,3.512 -28.57,11.129" /><path
         id="path312"
         style="fill:#1d262d;fill-opacity:1;fill-rule:nonzero;stroke:none"
         d="m 2016.66,247.109 v 70.762 h 11 v -70.762 z m -1.89,88.192 c 0,4.097 3.36,7.469 7.32,7.469 4.1,0 7.47,-3.372 7.47,-7.469 0,-4.102 -3.37,-7.332 -7.47,-7.332 -3.96,0 -7.32,3.23 -7.32,7.332" /><path
         id="path314"
         style="fill:#1d262d;fill-opacity:1;fill-rule:nonzero;stroke:none"
         d="m 2097.08,267.48 v 30.899 c -3.81,6.16 -12.3,11.43 -21.09,11.43 -14.21,0 -22.7,-11.278 -22.7,-26.95 0,-15.527 8.49,-26.961 22.7,-26.961 8.79,0 17.28,5.422 21.09,11.582 z m -51.26,-38.531 5.56,8.199 c 5.86,-7.027 12.89,-9.66 23,-9.66 11.72,0 22.7,5.711 22.7,21.242 v 10.102 c -5.12,-7.172 -13.76,-12.594 -23.73,-12.594 -18.45,0 -31.49,13.762 -31.49,36.621 0,22.7 12.89,36.762 31.49,36.762 9.52,0 18.02,-4.68 23.73,-12.449 v 10.699 h 10.99 v -68.699 c 0,-23.442 -16.41,-30.774 -33.69,-30.774 -12.01,0 -20.22,2.352 -28.56,10.551" /><path
         id="path316"
         style="fill:#1d262d;fill-opacity:1;fill-rule:nonzero;stroke:none"
         d="m 2174.13,247.109 v 46.289 c 0,12.454 -6.3,16.411 -15.82,16.411 -8.65,0 -16.85,-5.27 -20.95,-10.989 v -51.711 h -10.98 v 70.762 h 10.98 v -10.262 c 4.98,5.86 14.65,12.012 25.19,12.012 14.8,0 22.56,-7.473 22.56,-22.851 v -49.661 h -10.98" /><path
         id="path318"
         style="fill:#1d262d;fill-opacity:1;fill-rule:nonzero;stroke:none"
         d="m 2234.04,310.539 c -15.09,0 -22.56,-12.738 -23.15,-23.578 h 46.43 c -0.14,10.539 -7.17,23.578 -23.28,23.578 z m -34.72,-27.98 c 0,20.511 14.65,37.062 34.86,37.062 21.39,0 33.99,-16.699 33.99,-37.941 v -2.778 h -57.28 c 0.88,-13.332 10.26,-24.461 25.49,-24.461 8.06,0 16.26,3.219 21.83,8.93 l 5.27,-7.172 c -7.03,-7.027 -16.55,-10.84 -28.12,-10.84 -20.95,0 -36.04,15.082 -36.04,37.2" /><path
         id="path320"
         style="fill:#1d262d;fill-opacity:1;fill-rule:nonzero;stroke:none"
         d="m 2333.5,266.301 v 32.078 c -3.96,6.16 -12.46,11.43 -21.24,11.43 -14.21,0 -22.71,-11.719 -22.71,-27.387 0,-15.68 8.5,-27.25 22.71,-27.25 8.78,0 17.28,4.98 21.24,11.129 z m 0,-19.192 v 10.551 c -5.28,-7.18 -13.92,-12.301 -23.89,-12.301 -18.45,0 -31.48,14.063 -31.48,37.063 0,22.558 12.89,37.199 31.48,37.199 9.53,0 18.17,-4.68 23.89,-12.449 v 37.648 h 10.98 v -97.711 h -10.98" /><path
         id="path322"
         style="fill:#1d262d;fill-opacity:1;fill-rule:nonzero;stroke:none"
         d="m 2428.99,255.172 c 14.36,0 22.86,11.57 22.86,27.25 0,15.668 -8.5,27.387 -22.86,27.387 -8.64,0 -17.28,-5.27 -21.09,-11.43 v -32.078 c 3.81,-6.149 12.45,-11.129 21.09,-11.129 z m -32.08,-8.063 v 97.711 h 10.99 v -37.648 c 5.72,7.769 14.21,12.449 23.88,12.449 18.45,0 31.49,-14.641 31.49,-37.199 0,-23 -13.04,-37.063 -31.49,-37.063 -9.96,0 -18.6,5.121 -23.88,12.301 v -10.551 h -10.99" /><path
         id="path324"
         style="fill:#1d262d;fill-opacity:1;fill-rule:nonzero;stroke:none"
         d="m 2475.28,229.391 c 1.61,-0.731 4.25,-1.172 6.01,-1.172 4.83,0 8.05,1.613 10.55,7.472 l 4.68,10.688 -29.59,71.492 h 11.87 l 23.58,-58.012 23.44,58.012 h 12.01 l -35.45,-85.109 c -4.25,-10.262 -11.43,-14.211 -20.8,-14.364 -2.35,0 -6.01,0.442 -8.05,1.032 l 1.75,9.961" /></g></g></svg>